<svg xmlns="http://www.w3.org/2000/svg" viewBox="0 0 188 188" role="img" aria-label="Armada Mining favicon">
  <rect width="188" height="188" rx="42" fill="#fff7ef" />
  <g transform="translate(26 0)" fill="#f26929">
    <polygon points="27.79 84.12 30.22 86.3 30.51 109.16 38.57 116.37 38.57 78.43 27.79 72.31 27.79 84.12" />
    <polygon points="107.34 84.12 104.9 86.3 104.61 109.16 96.55 116.37 96.55 78.43 107.34 72.31 107.34 84.12" />
    <path d="M122.58,14.1l-.84-2.38-2.29-.76c-1.05-.35-25.95-8.52-41.79-10.75l-1.55-.22-8.56,4.78L59.01,0l-1.55.22C41.62,2.44,16.72,10.62,15.67,10.96l-2.29.76-.84,2.38c-.64,1.83-15.66,45.15-11.95,83.27,3.05,31.32,22.98,53.82,34.89,67.26,2.87,3.24,10.96,11.74,12.38,13.76l.28-9.18,19.31,17.76v.21s.11-.11.11-.11l.12.11v-.21s19.31-17.76,19.31-17.76l.28,9.18c1.42-2.02,9.5-10.52,12.38-13.76,11.91-13.44,31.84-35.95,34.89-67.26,3.71-38.12-11.31-81.44-11.95-83.27ZM124.8,96.31c-2.47,25.31-17.99,44.89-29.1,57.62l-.58-7.3-27.55,27.57-27.55-27.57-.58,7.3c-11.12-12.74-26.64-32.31-29.1-57.62-3-30.84,7.58-66.76,10.6-76.23,6.31-2,24.01-7.42,36.29-9.38l10.34,4.49,10.34-4.49c12.28,1.96,29.98,7.39,36.29,9.38,3.03,9.47,13.61,45.39,10.6,76.23Z" />
    <polygon points="95.83 47.49 100.02 38.15 88.59 32.44 71.4 41.8 73.78 69.77 67.56 73.45 61.34 69.77 63.73 41.8 46.54 32.44 35.11 38.15 39.29 47.49 46.35 43.97 53.39 47.8 51.03 75.52 62.66 82.4 62.66 94.57 47.72 105.23 46.1 123.37 55.15 131.62 57.03 111.06 67.56 103.55 78.09 111.06 79.98 131.62 89.02 123.37 87.4 105.23 72.46 94.57 72.46 82.4 84.1 75.52 81.73 47.8 88.78 43.97 95.83 47.49" />
  </g>
</svg>
