<?xml version="1.0" encoding="UTF-8"?>
<svg id="Layer_2" data-name="Layer 2" xmlns="http://www.w3.org/2000/svg" viewBox="0 0 531.74 187.19">
  <defs>
    <style>
      .cls-1 {
        fill: #f26929;
      }
    </style>
  </defs>
  <g id="Layer_1-2" data-name="Layer 1">
    <g>
      <g>
        <polygon class="cls-1" points="27.79 84.12 30.22 86.3 30.51 109.16 38.57 116.37 38.57 78.43 27.79 72.31 27.79 84.12"/>
        <polygon class="cls-1" points="107.34 84.12 104.9 86.3 104.61 109.16 96.55 116.37 96.55 78.43 107.34 72.31 107.34 84.12"/>
        <path class="cls-1" d="M122.58,14.1l-.84-2.38-2.29-.76c-1.05-.35-25.95-8.52-41.79-10.75l-1.55-.22-8.56,4.78L59.01,0l-1.55.22C41.62,2.44,16.72,10.62,15.67,10.96l-2.29.76-.84,2.38c-.64,1.83-15.66,45.15-11.95,83.27,3.05,31.32,22.98,53.82,34.89,67.26,2.87,3.24,10.96,11.74,12.38,13.76l.28-9.18,19.31,17.76v.21s.11-.11.11-.11l.12.11v-.21s19.31-17.76,19.31-17.76l.28,9.18c1.42-2.02,9.5-10.52,12.38-13.76,11.91-13.44,31.84-35.95,34.89-67.26,3.71-38.12-11.31-81.44-11.95-83.27ZM124.8,96.31c-2.47,25.31-17.99,44.89-29.1,57.62l-.58-7.3-27.55,27.57-27.55-27.57-.58,7.3c-11.12-12.74-26.64-32.31-29.1-57.62-3-30.84,7.58-66.76,10.6-76.23,6.31-2,24.01-7.42,36.29-9.38l10.34,4.49,10.34-4.49c12.28,1.96,29.98,7.39,36.29,9.38,3.03,9.47,13.61,45.39,10.6,76.23Z"/>
        <polygon class="cls-1" points="95.83 47.49 100.02 38.15 88.59 32.44 71.4 41.8 73.78 69.77 67.56 73.45 61.34 69.77 63.73 41.8 46.54 32.44 35.11 38.15 39.29 47.49 46.35 43.97 53.39 47.8 51.03 75.52 62.66 82.4 62.66 94.57 47.72 105.23 46.1 123.37 55.15 131.62 57.03 111.06 67.56 103.55 78.09 111.06 79.98 131.62 89.02 123.37 87.4 105.23 72.46 94.57 72.46 82.4 84.1 75.52 81.73 47.8 88.78 43.97 95.83 47.49"/>
      </g>
      <g>
        <g>
          <path class="cls-1" d="M179.44,159.23v-46.53h11.87l9.02,28.22c.27.81.54,1.74.81,2.78.27,1.04.53,2.04.78,2.98.25.95.44,1.79.58,2.51h.54c.09-.68.25-1.49.47-2.44.23-.95.46-1.94.71-2.98.25-1.04.51-2.01.78-2.92l9.09-28.15h11.67v46.53h-7.53v-25.5c0-1.72.02-3.5.07-5.36.04-1.85.09-3.5.14-4.95.04-1.45.07-2.37.07-2.78h-.54c-.09.5-.3,1.35-.64,2.54-.34,1.2-.69,2.48-1.05,3.83-.36,1.36-.7,2.53-1.02,3.53l-9.43,28.69h-6.72l-9.43-28.62c-.27-.86-.57-1.88-.88-3.05-.32-1.17-.63-2.37-.95-3.59-.32-1.22-.59-2.33-.81-3.33h-.54c.04,1.09.08,2.42.1,4,.02,1.58.06,3.18.1,4.78.04,1.61.07,3.04.07,4.31v25.5h-7.33Z"/>
          <path class="cls-1" d="M236.82,159.23v-46.53h7.6v46.53h-7.6Z"/>
          <path class="cls-1" d="M255.41,159.23v-46.53h7.33l21.23,29.17c.27.27.58.66.92,1.15.34.5.67.99.98,1.49.32.5.54.91.68,1.22h.34v-33.03h7.33v46.53h-7.05l-21.5-29.51c-.36-.54-.81-1.23-1.36-2.07-.54-.83-.95-1.48-1.22-1.93h-.34v33.51h-7.33Z"/>
          <path class="cls-1" d="M305.19,159.23v-46.53h7.6v46.53h-7.6Z"/>
          <path class="cls-1" d="M323.78,159.23v-46.53h7.33l21.23,29.17c.27.27.58.66.92,1.15.34.5.67.99.98,1.49.32.5.54.91.68,1.22h.34v-33.03h7.33v46.53h-7.05l-21.5-29.51c-.36-.54-.81-1.23-1.36-2.07-.54-.83-.95-1.48-1.22-1.93h-.34v33.51h-7.33Z"/>
          <path class="cls-1" d="M394.66,160.04c-7.37,0-13.03-1.94-16.99-5.83-3.96-3.89-5.94-9.97-5.94-18.25,0-5.43.93-9.91,2.78-13.47,1.85-3.55,4.54-6.21,8.07-7.97,3.53-1.76,7.82-2.65,12.89-2.65,3.03,0,5.84.34,8.44,1.02,2.6.68,4.88,1.71,6.85,3.09,1.97,1.38,3.48,3.11,4.54,5.19,1.06,2.08,1.59,4.55,1.59,7.39h-7.73c0-1.76-.35-3.29-1.05-4.58-.7-1.29-1.67-2.36-2.92-3.22-1.24-.86-2.69-1.48-4.34-1.87-1.65-.38-3.4-.58-5.26-.58-2.58,0-4.87.34-6.88,1.02-2.01.68-3.7,1.72-5.05,3.12-1.36,1.4-2.37,3.17-3.05,5.29-.68,2.13-1.02,4.64-1.02,7.53v1.42c0,3.98.58,7.21,1.73,9.7s2.87,4.31,5.15,5.46c2.28,1.15,5.08,1.73,8.38,1.73,3.12,0,5.74-.45,7.87-1.36,2.12-.9,3.75-2.25,4.88-4.03,1.13-1.79,1.7-4.01,1.7-6.68v-.68h-15.67v-6.31h23.27v24.69h-5.49l-.75-5.56c-1.27,1.49-2.71,2.7-4.34,3.63-1.63.93-3.4,1.62-5.32,2.07-1.92.45-4.04.68-6.34.68Z"/>
        </g>
        <g>
          <path class="cls-1" d="M280.39,44.57c0-5.48-1.87-10.04-5.69-13.75-3.74-3.8-8.29-5.65-13.58-5.65h-23.75v58.79h12.44v-19.57h8.38l11.79,19.57h14.15l-13.83-22.69c6.1-2.7,10.08-9.19,10.08-16.7ZM259.74,52.92h-9.92v-15.94h10.98c3.98,0,7.07,3.29,7.07,7.76,0,4.98-3.25,8.18-8.13,8.18Z"/>
          <path class="cls-1" d="M321.31,53.58l-21.1-29.5h-12.82v60.54h13.07v-37.47l19.92,26.93c.77,0,1.07,0,1.84-.01l19.39-26.91v37.47h13.07V24.08h-12.82l-20.55,29.5Z"/>
          <path class="cls-1" d="M385.1,24.74l-27.46,59.22h13.26l4.39-9.36h23.66l4.39,9.36h13.34l-27.46-59.22h-4.13ZM381.06,61.41l6.03-12.93,6.32,12.93h-12.35Z"/>
          <path class="cls-1" d="M504.29,24.74h-4.13l-27.46,59.22h13.26l4.39-10.14h23.66l4.39,10.14h13.34l-27.46-59.22ZM496.12,61.41l6.03-12.93,6.32,12.93h-12.35Z"/>
          <path class="cls-1" d="M201.89,24.74l-27.46,59.22h13.26l4.39-9.36h23.66l4.39,9.36h13.34l-27.46-59.22h-4.13ZM197.84,61.41l6.03-12.93,6.32,12.93h-12.35Z"/>
          <path class="cls-1" d="M464.81,33.35c-5.2-5.48-12.61-8.18-22.2-8.18h-21.47v58.79h21.55c9.68,0,17.08-2.62,22.2-7.93,5.2-5.31,7.81-12.48,7.81-21.34s-2.6-15.94-7.89-21.34ZM441.88,72.15h-8.21v-35.17h8.13c6.75,0,11.47,1.6,14.15,4.72,2.76,3.12,4.15,7.51,4.15,12.99,0,10.8-4.88,17.46-18.22,17.46Z"/>
        </g>
      </g>
    </g>
  </g>
</svg>