<?xml version="1.0" encoding="UTF-8"?>
<svg id="Layer_2" data-name="Layer 2" xmlns="http://www.w3.org/2000/svg" viewBox="0 0 608.67 785.4">
  <defs>
    <style>
      .cls-1 {
        fill: #401a0c;
      }
    </style>
  </defs>
  <g id="Layer_1-2" data-name="Layer 1">
    <g>
      <path class="cls-1" d="M68.31,0c-4.73,3.47-9.26,7.2-13.69,10.84l-.77.63c-8.62,7.09-16.11,15.08-22.31,21.97-4.52,5.02-8.54,8.75-12.64,11.72-5.73,4.16-12.25,5.27-18.89,3.25v.73c6.78,2,13.44.84,19.29-3.41,4.14-3.01,8.2-6.76,12.75-11.82,6.18-6.87,13.65-14.84,22.24-21.9l.77-.63c4.66-3.84,9.44-7.77,14.43-11.38h-1.17Z"/>
      <path class="cls-1" d="M158.5,131.51c-2.5,0-4.77-.65-6.64-1.95-2.89-1.99-4.63-5.41-4.9-9.63-.37-5.88.32-11.14,2.06-15.64,8.81-22.75,21.68-36.23,40.52-42.41.11-.04.22-.01.3.05.05-.03.1-.05.16-.06,5.8-.57,12.86-.16,16.02,8.19,1.97,5.2,1.02,10.26-.29,14.95-4.51,16.09-15.83,27.18-26.09,36.3-4.86,4.32-10.16,7.45-15.75,9.28-1.87.61-3.68.91-5.38.91ZM189.84,62.51s-.06.03-.09.05c-18.62,6.11-31.36,19.45-40.09,41.99-1.7,4.4-2.38,9.56-2.02,15.34.25,3.99,1.89,7.22,4.6,9.09,2.97,2.05,7.03,2.38,11.42.94,5.5-1.8,10.72-4.88,15.51-9.14,10.19-9.06,21.43-20.05,25.88-35.96,1.28-4.58,2.21-9.5.31-14.51-2.99-7.9-9.75-8.29-15.31-7.74-.09,0-.16-.01-.23-.06Z"/>
      <g>
        <path class="cls-1" d="M211.28,785.4c1.41-3.75,3.3-7.3,5.15-10.77.36-.68.72-1.35,1.08-2.03,6.59-12.49,15.5-22.61,26.48-30.09,7.88-5.37,15.66-6.7,23.13-3.97,7.27,2.66,13.54,7.56,18.64,14.57,7.26,9.98,12.07,20.82,14.35,32.28h.71c-2.29-11.62-7.16-22.6-14.5-32.7-5.18-7.12-11.56-12.11-18.96-14.81-7.69-2.81-15.68-1.45-23.75,4.05-11.08,7.54-20.06,17.75-26.71,30.34-.36.67-.72,1.35-1.08,2.02-1.91,3.57-3.84,7.22-5.28,11.1h.74Z"/>
        <path class="cls-1" d="M173.45,481.16c-3.68,0-6.85-.79-9.86-2.44-15.86-8.69-25.93-22.17-29.91-40.07-1.75-7.87,1.31-15.03,7.98-18.68.12-.06.26-.05.36.02.05-.04.11-.06.17-.06,6.56-.4,11.36,2.99,14.8,5.99,9.58,8.35,15.54,19,21.54,32.43,2.27,5.08,3.23,10.62,2.83,16.45-.24,3.6-2.68,6.07-6.21,6.29-.58.04-1.16.06-1.72.06ZM142.02,420.57s-.02.01-.03.02c-6.39,3.5-9.31,10.36-7.63,17.91,3.93,17.7,13.88,31.02,29.56,39.61,3.35,1.84,6.91,2.56,11.21,2.3,3.16-.2,5.34-2.41,5.56-5.64.39-5.72-.55-11.14-2.77-16.12-5.97-13.34-11.88-23.92-21.36-32.19-4.97-4.33-9.37-6.12-14.31-5.82-.07,0-.16-.02-.22-.06Z"/>
        <path class="cls-1" d="M126.33,710.5c-8.94,0-18.12-1.64-27.38-4.91-10.5-3.71-19.88-8.17-28.66-13.64-21.85-13.61-37.28-30.98-47.16-53.09-5.72-12.8-9.09-27.03-10.03-42.31-.77-12.58-.37-23.54,1.23-33.51,1.14-7.14,2.71-15.57,5.66-23.91,4.32-12.25,11.43-20.03,21.74-23.78,1.25-.46,2.53-.48,3.77-.5,1.58-.03,3.08-.05,4.43-.96.12-.08.27-.07.39,0,.03-.02.06-.04.1-.05,1.18-.37,2.21,0,3.2.36.68.25,1.32.48,2,.49,4.3.08,8.41,1.15,12.26,2.24,12.55,3.54,25.38,9.06,39.23,16.87,25.8,14.54,43.86,28.16,58.55,44.15,11.1,12.08,18.44,23.39,23.11,35.57,6.45,16.85,7.12,33.25,1.98,48.75-4.55,13.73-12.74,25.32-24.35,34.45-9.65,7.59-20.54,12.09-32.38,13.36-2.54.27-5.1.41-7.68.41ZM50.3,514.46s0,0,0,0c-1.52,1.01-3.18,1.04-4.79,1.07-1.18.02-2.4.04-3.54.46-10.24,3.73-17.01,11.15-21.32,23.36-2.93,8.29-4.49,16.67-5.63,23.78-1.59,9.92-1.99,20.83-1.22,33.36.93,15.19,4.29,29.35,9.97,42.06,9.83,21.98,25.17,39.25,46.89,52.78,8.74,5.44,18.07,9.88,28.53,13.58,11.83,4.18,23.53,5.68,34.76,4.47,11.71-1.26,22.48-5.71,32.03-13.22,11.49-9.04,19.61-20.52,24.12-34.11,5.09-15.34,4.42-31.58-1.97-48.27-4.64-12.1-11.94-23.33-22.98-35.35-14.64-15.93-32.64-29.51-58.38-44.01-13.8-7.78-26.58-13.28-39.08-16.81-3.8-1.07-7.87-2.13-12.09-2.21-.8-.02-1.52-.28-2.22-.53-.93-.34-1.81-.65-2.76-.36-.11.03-.21.01-.3-.05Z"/>
        <path class="cls-1" d="M291.56,425.52c-7.7,0-15.7-1.85-24.83-5.69-16.32-6.88-30.56-18.27-43.52-34.83-11.44-14.63-20.78-30.93-27.74-48.47-7.65-19.27-12.31-38.87-13.84-58.25-.78-9.82-.36-19.76,1.23-29.54,1.64-10.04,4.66-19.81,9.26-29.88,9.99-21.9,24.86-39.48,38.08-53.78,6.73-7.28,14.4-14.61,23.45-22.42,13.55-11.69,25.67-19.9,38.15-25.86,9.14-4.36,17.14-6.96,25.16-8.18.89-.13,1.82-.14,2.72-.15,1.94-.01,3.77-.02,5.39-1.18.12-.09.28-.08.39,0,.06-.04.13-.06.21-.06,2.19.1,4.41.12,6.56.14,3.51.03,7.13.07,10.72.45.92.1,1.84.19,2.77.29,4.14.42,8.42.86,12.5,1.67,13,2.6,23.37,5.33,32.62,8.57,15.58,5.46,31.6,12.53,43.26,27.2,11.12,13.98,14.11,29.84,9.16,48.47-4.09,15.39-12.89,28.64-28.52,42.98-4.04,3.71-8.28,7.33-12.38,10.83-7.46,6.37-15.17,12.96-21.98,20.31-7.53,8.13-13.27,18.14-17.05,29.75-3.5,10.74-5.19,22.13-6.81,33.14-.36,2.45-.72,4.9-1.11,7.34-1.37,8.76-2.78,17.82-5.51,26.71-6.54,21.3-15.42,36.65-27.94,48.3-7.56,7.03-16.34,11.04-26.09,11.93-1.44.13-2.88.2-4.33.2ZM325.47,107.87c-1.79,1.28-3.82,1.29-5.78,1.3-.92,0-1.78.01-2.63.14-7.96,1.2-15.89,3.78-24.97,8.12-12.42,5.93-24.49,14.12-37.99,25.76-9.03,7.79-16.68,15.1-23.39,22.36-13.19,14.27-28.01,31.79-37.96,53.6-4.57,10.01-7.58,19.72-9.2,29.7-1.58,9.73-2,19.61-1.23,29.37,1.52,19.31,6.16,38.84,13.79,58.05,6.94,17.47,16.24,33.72,27.64,48.3,12.88,16.47,27.03,27.79,43.24,34.62,10.75,4.53,19.91,6.26,28.84,5.45,9.6-.88,18.24-4.83,25.68-11.75,12.43-11.56,21.24-26.81,27.74-47.99,2.71-8.84,4.12-17.87,5.48-26.61.38-2.44.74-4.89,1.11-7.34,1.63-11.04,3.32-22.46,6.84-33.26,3.82-11.7,9.6-21.8,17.2-30.01,6.83-7.38,14.56-13.98,22.03-20.37,4.1-3.5,8.33-7.12,12.36-10.82,15.53-14.24,24.26-27.4,28.32-42.64,4.89-18.4,1.94-34.05-9.03-47.85-11.55-14.53-27.47-21.55-42.95-26.98-9.23-3.23-19.56-5.95-32.53-8.54-4.05-.81-8.31-1.24-12.43-1.66-.92-.09-1.85-.19-2.77-.29-3.56-.38-7.17-.41-10.66-.45-2.16-.02-4.39-.04-6.59-.15-.07,0-.13-.02-.18-.06Z"/>
        <path class="cls-1" d="M235.95,785.4c1.95-3.63,4.32-7.18,7.63-9.96,6.93-5.8,14.24-6.48,21.13-1.96,4.49,2.95,7.15,7.28,9.24,11.92h.76c-2.16-4.85-4.89-9.4-9.63-12.51-7.17-4.7-14.75-4.01-21.95,2.01-3.5,2.93-5.96,6.69-7.98,10.5h.79Z"/>
        <path class="cls-1" d="M5.81,699.96c5.98,12.39,12.73,23.95,20.05,34.35,7.3,10.37,15.64,17.13,25.5,20.66,13.44,4.82,28.66,7.76,46.52,9.01,11.36.79,21.31.36,30.42-1.3,15.45-2.82,28.77-8.25,40.71-16.59,12.17-8.5,23.14-18.56,33.55-30.74,10.99-12.87,19.1-25.45,24.81-38.46,3.77-8.6,6.02-18.06,7.07-29.75.6-6.74-.52-13.55-1.7-19.33-3.08-15.1-8.99-29.68-17.58-43.33-13.97-22.21-33.32-38.73-50.41-51.95-6.96-5.38-14.2-10.6-21.21-15.64-10.07-7.25-20.48-14.74-30.18-22.84-14.46-12.07-26.2-25.03-35.88-39.62-8.86-13.35-16.44-28.17-23.18-45.3-5.7-14.5-7.29-28.88-4.72-42.75,2.06-11.14,7.45-21.95,16.48-33.07,4.24-5.22,9.03-10.09,13.66-14.8,2.94-2.99,5.98-6.08,8.86-9.24,8.37-9.18,17.12-18.48,26.02-27.64,1.96-2.02,3.91-2.99,5.77-2.85,1.87.13,3.74,1.39,5.41,3.65,2.68,3.63,4.84,7.77,6.65,11.36,2.14,4.24,4.26,8.58,6.32,12.78,5.43,11.08,11.04,22.53,17.37,33.33,10.56,18.03,22.66,35.48,34.36,52.36l1.41,2.03c17.99,25.96,38.63,51.4,61.35,75.62,7,7.46,13.3,15.55,18.01,21.77,11.7,15.46,21.41,32.82,29.69,53.09,6,14.69,10.05,30.49,12.39,48.32.93,7.11,1.45,14.41,1.94,21.47.12,1.71.24,3.42.37,5.13.47,6.42,1.09,13.89,2.45,21.19,1.79,9.63,5.03,18.33,9.88,26.59,5.24,8.92,11.93,16.83,18.39,24.48l2.2,2.61c11.41,13.57,18.88,30.49,22.86,51.74,1.85,9.89,3.13,18.08,4.05,25.78.22,1.89.46,3.78.7,5.67.32,2.52.63,5.08.92,7.66h1.85c-.3-2.66-.63-5.3-.95-7.89-.24-1.89-.47-3.77-.7-5.66-.92-7.74-2.21-15.98-4.07-25.91-4.03-21.58-11.64-38.78-23.27-52.61l-2.2-2.61c-6.41-7.59-13.05-15.45-18.21-24.23-4.75-8.07-7.9-16.57-9.66-25.98-1.34-7.2-1.95-14.61-2.42-20.98-.13-1.71-.25-3.42-.37-5.13-.5-7.09-1.01-14.42-1.95-21.58-2.36-17.99-6.46-33.95-12.52-48.79-8.34-20.42-18.13-37.93-29.93-53.52-4.74-6.25-11.08-14.39-18.13-21.92-22.66-24.15-43.24-49.52-61.18-75.41l-1.41-2.03c-11.68-16.85-23.76-34.27-34.28-52.24-6.29-10.74-11.89-22.16-17.3-33.21-2.06-4.2-4.19-8.55-6.33-12.8-1.84-3.66-4.04-7.88-6.81-11.63-2-2.71-4.34-4.22-6.76-4.39-2.42-.17-4.85.98-7.2,3.4-8.91,9.18-17.68,18.49-26.06,27.68-2.86,3.13-5.88,6.21-8.81,9.18-4.66,4.74-9.48,9.64-13.78,14.93-9.23,11.37-14.75,22.46-16.87,33.91-2.63,14.22-1.01,28.95,4.82,43.79,6.79,17.25,14.43,32.19,23.36,45.65,9.78,14.74,21.64,27.83,36.24,40.02,9.75,8.14,20.19,15.66,30.29,22.92,6.99,5.03,14.23,10.24,21.16,15.6,16.96,13.13,36.17,29.51,49.98,51.47,8.47,13.47,14.3,27.83,17.33,42.71,1.15,5.65,2.25,12.29,1.67,18.79-1.03,11.48-3.22,20.75-6.91,29.16-5.63,12.84-13.65,25.27-24.52,38-10.3,12.07-21.16,22.02-33.2,30.43-11.72,8.19-24.8,13.51-39.99,16.29-8.96,1.64-18.76,2.06-29.97,1.28-17.69-1.23-32.74-4.14-46.03-8.9-9.49-3.4-17.54-9.94-24.61-19.99-7.26-10.32-13.95-21.79-19.89-34.09-1.43-2.96-2.71-6.06-3.95-9.07-1.11-2.69-2.26-5.44-3.52-8.13v4.53c.62,1.45,1.23,2.89,1.82,4.32,1.25,3.03,2.55,6.16,4,9.17Z"/>
        <path class="cls-1" d="M371.62,618.14c-4.17,0-8.18-1.28-11.28-3.83-4.91-4.03-8.95-9.61-11.68-16.12-4.95-11.82-9.22-24.15-13.35-36.07-.88-2.53-1.75-5.07-2.64-7.59-4.46-12.77-9.98-27.82-17.08-42.59-5.44-11.3-11.49-23.16-20.35-32.93-8.67-9.57-18.49-17.54-30.57-26.56-17.83-13.32-33.51-28.1-46.6-43.93-9.36-11.32-18.21-23.78-26.3-37.02-5.01-8.21-10.81-18.03-15.77-28.64-5.36-11.47-9.51-22.54-12.67-33.84-3.28-11.75-5.31-24.53-6.2-39.09-.13-2.18.13-4.33.39-6.41.15-1.17.29-2.39.37-3.58.35-5.68,1.5-11.14,3.1-17.59,4.02-16.13,12.5-30.06,20.14-41.85,10.99-16.98,24.47-31.91,37.33-45.75,6.12-6.58,13-13.41,21.03-20.87,1.94-1.8,3.88-3.62,5.81-5.43,6.25-5.87,12.72-11.93,19.41-17.52,12.8-10.69,26.9-21.56,43.18-28.71,5.29-2.32,10.8-3.87,16.46-5.38,1.33-.36,2.69-.36,4.01-.36,1.9,0,3.7-.01,5.35-1.02.12-.07.27-.06.37.01.03-.02.07-.04.11-.05,1.21-.32,2.31.02,3.37.34.75.23,1.46.43,2.2.44,4.88-.03,9.51,1.32,14,2.63.6.17,1.19.35,1.79.52,17.78,5.11,34.5,12.8,52.94,21.59,15.3,7.29,32.73,16.87,46.03,32.65,8.15,9.67,12.99,20.99,14.39,33.65,1.69,15.24-.92,30.41-7.77,45.1-5.93,12.72-14.53,25.11-26.3,37.88-4.09,4.43-8.43,8.76-12.62,12.94-6.05,6.03-12.3,12.26-17.9,18.92-6.69,7.95-11.8,16.75-15.2,26.16-5.11,14.16-6.36,29.3-7.57,43.93l-.24,2.92c-.75,9.03-1.22,17.1-1.42,24.65-.04,1.5-.09,3-.13,4.5-.28,9.07-.57,18.46.65,27.68,1.53,11.6,7.01,20.51,16.75,27.24,14.54,10.05,31.47,12.37,46.12,13.31,5.38.35,11.27.18,17.99-.5,8.4-.86,15.16-.64,21.24.67,4.89,1.05,8.2,3.06,9.82,5.97,1.54,2.76,1.58,6.36.12,10.7-1.86,5.52-5.25,10.71-10.97,16.84-4.22,4.52-8.66,8.97-12.95,13.27-1.95,1.95-3.89,3.91-5.83,5.87-9.44,9.59-17.52,21.07-25.42,36.12-.84,1.59-1.67,3.18-2.5,4.77-5.85,11.2-11.9,22.77-19.09,33.45-8.67,12.89-18.33,26.22-32.59,35.17-3.57,2.24-7.6,3.36-11.49,3.36ZM334.09,76.04s-.01,0-.02.01c-1.82,1.11-3.8,1.12-5.71,1.12-1.27,0-2.59,0-3.83.34-5.63,1.5-11.12,3.04-16.36,5.34-16.21,7.11-30.25,17.95-43.02,28.61-6.68,5.57-13.13,11.63-19.38,17.49-1.93,1.81-3.87,3.63-5.81,5.43-8.02,7.45-14.89,14.26-21,20.83-12.84,13.81-26.29,28.72-37.25,45.65-7.6,11.74-16.05,25.61-20.04,41.64-1.6,6.41-2.73,11.83-3.08,17.46-.08,1.22-.23,2.44-.37,3.62-.25,2.05-.51,4.17-.38,6.28.89,14.51,2.91,27.25,6.18,38.94,3.15,11.26,7.28,22.3,12.62,33.73,4.94,10.57,10.73,20.37,15.73,28.57,8.07,13.21,16.9,25.64,26.24,36.94,13.05,15.78,28.69,30.52,46.48,43.82,12.11,9.04,21.95,17.04,30.67,26.65,8.92,9.84,15,21.75,20.46,33.1,7.12,14.8,12.65,29.87,17.11,42.66.88,2.53,1.76,5.06,2.64,7.6,4.12,11.91,8.39,24.23,13.33,36.03,2.69,6.41,6.66,11.89,11.48,15.85,5.69,4.67,14.93,4.85,21.97.43,14.15-8.88,23.76-22.14,32.39-34.97,7.16-10.64,13.2-22.2,19.05-33.38.83-1.59,1.66-3.18,2.5-4.77,7.94-15.11,16.06-26.64,25.55-36.28,1.93-1.97,3.88-3.92,5.83-5.87,4.29-4.3,8.72-8.75,12.93-13.26,5.65-6.05,8.99-11.17,10.82-16.58,1.4-4.14,1.37-7.54-.07-10.12-1.52-2.73-4.67-4.62-9.36-5.63-6.01-1.3-12.7-1.51-21.03-.66-6.76.69-12.68.85-18.1.5-14.74-.95-31.78-3.29-46.46-13.43-9.91-6.85-15.49-15.92-17.05-27.73-1.23-9.28-.94-18.69-.65-27.79.05-1.5.09-3,.13-4.49.2-7.56.67-15.64,1.42-24.69l.24-2.92c1.21-14.68,2.46-29.86,7.61-44.11,3.42-9.49,8.58-18.36,15.32-26.37,5.62-6.68,11.89-12.92,17.94-18.96,4.19-4.18,8.52-8.49,12.6-12.92,11.72-12.71,20.29-25.04,26.18-37.7,6.79-14.57,9.38-29.61,7.7-44.72-1.39-12.52-6.18-23.71-14.23-33.27-13.21-15.68-30.56-25.21-45.79-32.47-18.42-8.77-35.1-16.45-52.83-21.55-.6-.17-1.2-.35-1.79-.52-4.44-1.3-9.04-2.67-13.8-2.6-.83,0-1.63-.23-2.4-.47-1.02-.31-1.98-.6-3-.33-.1.02-.2,0-.28-.05Z"/>
        <path class="cls-1" d="M125.02,665.91c-1.92,0-3.9-.14-5.95-.44-10.27-1.46-20.6-5.81-31.58-13.29-11.99-8.16-20.93-17.49-27.36-28.52-3.29-5.65-5.39-12.36-6.61-21.11-1.24-8.85.35-16.88,4.85-24.55,3.35-5.71,8.48-8.16,15.15-10.07.1-.03.21,0,.29.05.05-.03.1-.06.17-.06,9.88-.91,20.05,1.63,31.09,7.74,19.71,10.91,32.96,23.06,41.7,38.22,4.24,7.35,9.46,18.59,5.92,31.26-3.72,13.29-13.86,20.77-27.67,20.77ZM73.82,568.57s-.06.04-.1.05c-6.51,1.87-11.51,4.25-14.74,9.76-4.42,7.53-5.98,15.41-4.76,24.09,1.21,8.66,3.28,15.28,6.52,20.85,6.37,10.94,15.25,20.19,27.15,28.29,10.89,7.42,21.13,11.72,31.29,13.18,6.16.88,26.74,2.04,32.86-19.83,3.47-12.42-1.67-23.48-5.85-30.71-8.68-15.05-21.84-27.11-41.44-37.96-10.91-6.04-20.95-8.54-30.7-7.65-.08.02-.16-.02-.23-.06Z"/>
        <path class="cls-1" d="M125.95,693.6c-10.31,0-20.83-2.54-32.05-7.73-24.29-11.23-41.69-26.2-53.19-45.75-8.75-14.88-13.16-31.35-13.49-50.35-.12-6.76.6-13.09,2.14-18.8,1.8-6.68,3.89-13.72,7.92-19.98,4.63-7.18,11.62-11.79,21.36-14.08.1-.02.2,0,.27.05.06-.04.12-.06.2-.06,1.22,0,2.47-.05,3.68-.1,2.68-.11,5.45-.21,8.11.2,10.2,1.58,20.24,4.8,29.86,9.57,21.6,10.72,39.09,23.46,53.47,38.96,12.4,13.37,19.81,26.19,23.31,40.33,2.38,9.63,2.45,18.67.22,27.64-2.65,10.62-8.2,19.79-16.52,27.24-8.81,7.89-19.69,12.2-32.35,12.8-.98.05-1.97.07-2.95.07ZM58.92,537.54s-.07.04-.12.05c-9.56,2.25-16.41,6.76-20.94,13.79-3.98,6.17-6.05,13.16-7.83,19.78-1.52,5.65-2.23,11.91-2.12,18.6.33,18.87,4.71,35.23,13.39,50,11.42,19.43,28.72,34.31,52.88,45.48,12.19,5.63,23.54,8.13,34.69,7.59,12.5-.59,23.24-4.84,31.93-12.62,8.21-7.36,13.69-16.4,16.3-26.89,2.21-8.85,2.13-17.78-.22-27.29-3.47-14.02-10.82-26.74-23.14-40.02-14.32-15.44-31.74-28.13-53.27-38.81-9.56-4.74-19.54-7.94-29.67-9.51-2.6-.4-5.34-.29-7.98-.19-1.22.05-2.48.1-3.71.1-.07,0-.14-.02-.19-.06Z"/>
        <path class="cls-1" d="M388.78,677.98c-.64,0-1.33-.12-2.07-.36-11.82-3.87-23.04-10.49-33.35-19.66-10.8-9.61-15.26-22.93-18.2-34.69-1.92-7.67-3.46-15.54-4.94-23.16-1.35-6.91-2.74-14.05-4.42-21.01-4.51-18.74-10.83-37.06-18.81-54.45-10.48-22.84-23.4-41.29-39.52-56.41-2.29-2.14-4.59-4.27-6.89-6.4-4.33-4-8.8-8.14-13.09-12.32-6.77-6.59-13.94-13.73-20.53-21.39-5.87-6.81-12.1-14.19-17.97-21.96-10.17-13.46-20.44-28.69-31.4-46.56-8.12-13.23-14.66-26.53-19.45-39.52-5.66-15.35-9.13-29.27-10.6-42.57-.91-8.24-.53-16.35,1.16-24.77,3.2-15.92,11.02-29.93,17.48-40.36,10.95-17.68,24.46-34.84,42.53-54.03,17.73-18.82,34.22-35.15,50.41-49.92,11.4-10.4,25.04-22.45,39.73-32.91,6.59-4.69,13.69-9.56,21.58-12.85,3.05-1.27,6.25-2.17,9.34-3.04,1.08-.3,2.17-.61,3.25-.93.11-.03.21,0,.29.05.05-.03.1-.05.17-.06,10.56-.96,19.85,3.45,26.75,7.39,13.94,7.96,27.83,15.64,41.28,22.82,1.45.77,2.9,1.54,4.35,2.31,13.08,6.95,26.6,14.14,38.8,23.2,12.92,9.6,21.4,19.27,26.68,30.43,6.77,14.32,8.33,30.3,4.64,47.51-2.92,13.59-8.9,27.05-18.28,41.17-6.49,9.76-14.23,19.37-23.67,29.39-1.39,1.48-2.8,2.95-4.2,4.43-6.08,6.4-12.37,13.01-17.94,19.99-12.17,15.25-18.76,34.29-19.58,56.58-.59,16.14.12,29.52,2.23,42.11,1.39,8.31,4.22,15.44,8.4,21.19,7.36,10.14,18.56,15.72,33.28,16.57,7.43.43,13.95.27,19.94-.5,7.2-.93,14.49-2.53,22.27-4.9,12.7-3.87,24.3-10.59,35.52-17.08l2.05-1.19c7.26-4.19,15.85-8.69,26.02-8.91,4.45-.08,8.47,1.6,11.39,4.76,3.23,3.5,4.82,8.46,4.37,13.62-.89,10.2-5.19,18.83-9.29,25.93-8.61,14.93-18.08,29.12-26.21,41.04-9.51,13.94-21.99,27.34-38.13,40.97-9.93,8.38-16.99,15.42-22.91,22.8-7.23,9.02-13.03,19.29-18.64,29.21-1,1.76-1.99,3.52-2.99,5.28-3.28,5.73-6.65,11.54-9.91,17.15-5.13,8.84-10.43,17.97-15.5,27.04-5.54,9.91-9.92,19.12-13.4,28.16-2.94,7.64-4.78,15.72-6.56,23.53l-.43,1.9c-.56,2.42-1.53,4.05-2.9,4.83-.64.36-1.35.55-2.14.55ZM333.31,59.33s-.06.04-.1.05c-1.08.32-2.17.63-3.26.93-3.07.86-6.25,1.76-9.26,3.01-7.82,3.26-14.88,8.1-21.44,12.77-14.66,10.44-28.28,22.47-39.66,32.86-16.18,14.77-32.66,31.09-50.38,49.89-18.04,19.15-31.53,36.28-42.45,53.91-6.43,10.38-14.21,24.32-17.39,40.13-1.68,8.35-2.05,16.38-1.15,24.55,1.46,13.23,4.92,27.1,10.56,42.4,4.78,12.94,11.3,26.2,19.39,39.39,10.95,17.85,21.21,33.06,31.36,46.5,5.86,7.76,12.09,15.12,17.94,21.93,6.57,7.63,13.73,14.77,20.48,21.34,4.29,4.17,8.76,8.31,13.08,12.3,2.3,2.13,4.6,4.26,6.89,6.41,16.18,15.18,29.16,33.7,39.68,56.63,7.99,17.43,14.34,35.79,18.85,54.58,1.68,6.98,3.07,14.13,4.42,21.04,1.49,7.61,3.02,15.48,4.94,23.13,2.92,11.66,7.34,24.86,17.99,34.34,10.24,9.11,21.38,15.68,33.11,19.52,1.45.47,2.68.43,3.66-.13,1.19-.69,2.06-2.16,2.57-4.38l.43-1.9c1.79-7.84,3.64-15.94,6.59-23.63,3.49-9.06,7.88-18.3,13.44-28.25,5.07-9.08,10.38-18.21,15.51-27.05,3.26-5.61,6.63-11.42,9.9-17.15,1-1.75,2-3.51,2.99-5.27,5.62-9.95,11.44-20.23,18.7-29.3,5.94-7.42,13.04-14.49,23-22.9,16.09-13.59,28.52-26.95,38-40.84,8.12-11.9,17.59-26.08,26.18-40.99,4.06-7.03,8.32-15.58,9.2-25.64.43-4.95-1.1-9.72-4.19-13.08-2.78-3.02-6.63-4.63-10.87-4.54-10.01.22-18.51,4.66-25.69,8.81l-2.05,1.18c-11.25,6.52-22.89,13.25-35.66,17.14-7.82,2.38-15.14,3.99-22.39,4.92-6.03.78-12.59.94-20.07.51-14.93-.87-26.3-6.54-33.8-16.85-4.25-5.85-7.11-13.08-8.52-21.49-2.12-12.63-2.83-26.06-2.24-42.25.82-22.45,7.46-41.63,19.73-57,5.59-7,11.89-13.63,17.97-20.03,1.4-1.47,2.8-2.95,4.19-4.43,9.41-9.99,17.13-19.57,23.6-29.3,9.33-14.04,15.28-27.42,18.18-40.92,3.66-17.05,2.12-32.88-4.58-47.06-5.23-11.05-13.64-20.64-26.47-30.17-12.16-9.03-25.66-16.21-38.72-23.15-1.45-.77-2.9-1.54-4.35-2.31-13.46-7.19-27.36-14.87-41.3-22.83-6.82-3.9-15.97-8.25-26.35-7.3-.08,0-.16-.02-.23-.06Z"/>
        <path class="cls-1" d="M218.07,627.12c-2.73-14.19-8.37-27.9-16.75-40.74-9.98-15.28-23.59-29.45-42.85-44.59-11.72-9.21-24.21-17.73-36.3-25.98-3.84-2.62-7.69-5.24-11.51-7.89-13.71-9.49-28.15-19.77-40.65-31.87-12.26-11.87-26.35-25.83-38.46-41.26-8.33-10.61-15.03-22.77-19.91-36.12-3.26-8.9-5.09-18.35-6.87-27.49-.46-2.36-.92-4.71-1.4-7.06-.17-.82-.31-1.67-.45-2.53-.51-3.1-1.05-6.29-2.93-8.6v1.18c1.35,2.11,1.81,4.85,2.25,7.53.14.87.29,1.73.46,2.56.48,2.35.94,4.7,1.4,7.05,1.78,9.16,3.62,18.64,6.9,27.59,4.91,13.42,11.64,25.64,20.02,36.31,12.13,15.46,26.25,29.44,38.52,41.33,12.53,12.14,27,22.44,40.73,31.95,3.83,2.65,7.67,5.27,11.51,7.89,12.07,8.24,24.56,16.76,36.26,25.95,19.2,15.09,32.77,29.2,42.7,44.42,8.33,12.77,13.94,26.39,16.65,40.49,1.11,5.76,2.07,11.4,1.65,16.98-1.01,13.44-3.37,23.48-7.64,32.56-5.97,12.68-13.14,23.32-21.94,32.53-10.79,11.29-21.11,18.99-32.45,24.21-7.42,3.42-15.48,5.77-24.62,7.18-5.53.86-11.36,1.02-18.35.51-7.87-.58-16.02-2.14-24.22-4.65-19.33-5.92-36.29-15.14-50.4-27.39-9.07-7.88-17.03-17.83-25.04-31.3-6.32-10.63-10.82-21.84-14.36-32.23v2.12c3.45,9.89,7.8,20.43,13.77,30.47,8.05,13.54,16.05,23.54,25.18,31.47,14.19,12.32,31.23,21.58,50.65,27.53,8.25,2.53,16.45,4.1,24.37,4.68,2.66.19,5.15.29,7.52.29,3.92,0,7.51-.27,10.99-.81,9.21-1.43,17.32-3.79,24.8-7.24,11.43-5.26,21.81-13,32.66-24.36,8.85-9.26,16.07-19.97,22.07-32.72,4.31-9.16,6.69-19.28,7.71-32.81.43-5.67-.54-11.36-1.66-17.17Z"/>
        <path class="cls-1" d="M284.87,412.93c-8.59,0-16.91-2.1-24.81-6.29-12.86-6.81-23.96-16.44-33.92-29.44-12.61-16.46-21.99-35.12-28.67-57.04-4.4-14.43-7-27.49-7.94-39.9-.73-9.6-.58-19,.44-27.91,1.48-12.86,5.4-25.37,12-38.26,7.15-13.97,16.53-27.26,28.66-40.63,17.86-19.69,33.23-32.83,49.85-42.6,10.55-6.2,19.77-9.97,29.02-11.86,1.07-.22,2.17-.38,3.24-.54,2.32-.34,4.73-.7,6.92-1.65.11-.05.24-.03.33.03.05-.04.12-.06.19-.06,12.25-.3,26.49-.38,40.43,2.47,12.73,2.6,26.22,5.6,38.88,11.1,9.83,4.28,22.17,10.82,30.39,23.55,7.07,10.94,9.1,23.34,6.05,36.85-2.39,10.56-8.1,20.66-17.46,30.88-6.73,7.35-14.55,13.63-22.1,19.7-4.17,3.35-8.48,6.81-12.55,10.41-11.04,9.75-18.57,19.12-23.7,29.46-6.35,12.82-8.89,26.82-10.95,40.07l-.36,2.31c-1.42,9.2-2.9,18.71-5.09,27.96-5.02,21.22-14.32,37.66-28.44,50.25-6.61,5.89-14.8,9.59-23.68,10.7-2.25.28-4.5.42-6.72.42ZM319.98,117.42s-.04.02-.06.03c-2.28.99-4.73,1.35-7.1,1.7-1.06.16-2.15.32-3.2.53-9.18,1.87-18.33,5.62-28.81,11.78-16.56,9.74-31.88,22.83-49.69,42.47-12.09,13.33-21.43,26.57-28.55,40.48-6.56,12.81-10.46,25.24-11.93,38.01-1.02,8.87-1.17,18.22-.44,27.78.94,12.36,3.53,25.37,7.91,39.75,6.66,21.84,16,40.43,28.56,56.82,9.9,12.92,20.92,22.49,33.7,29.25,9.82,5.19,20.29,7.14,31.12,5.79,8.75-1.09,16.81-4.74,23.31-10.53,14-12.49,23.23-28.8,28.22-49.88,2.18-9.23,3.65-18.72,5.08-27.91l.36-2.31c2.07-13.3,4.62-27.37,11.02-40.27,5.17-10.43,12.75-19.86,23.87-29.68,4.09-3.61,8.4-7.08,12.58-10.43,7.54-6.06,15.33-12.32,22.03-19.63,9.28-10.13,14.93-20.12,17.29-30.56,3.01-13.32,1.01-25.54-5.95-36.31-8.12-12.58-20.35-19.05-30.09-23.29-12.6-5.48-26.05-8.47-38.74-11.06-13.87-2.83-28.07-2.75-40.28-2.46-.08,0-.15-.02-.2-.06Z"/>
        <path class="cls-1" d="M124.74,725.67c-7.08,0-14.52-1.03-22.19-3.09-18.13-4.86-34.53-12.77-48.74-23.5-15.21-11.48-27.24-25.45-35.74-41.52-7.33-13.86-12.15-28.46-14.72-44.63-1.68-10.55-2.37-20.84-2.81-29.51-.44-8.41-.29-16.6.43-24.33.38-4.08.64-8.26.9-12.29.22-3.53.45-7.18.76-10.77.85-9.92,2.75-19.7,5.65-29.09,2.63-8.53,6.4-14.28,11.84-18.1,2.11-1.48,4.52-2.08,6.85-2.65,1.14-.28,2.32-.58,3.43-.97.11-.04.22-.02.31.04.06-.04.13-.06.21-.06,8.14.31,16.38,2.57,26.72,7.33,17.26,7.94,33.73,17.74,47.82,26.3,21.59,13.12,39.29,24.81,55.47,39.19,19.05,16.94,30.89,32.22,38.37,49.56,4.89,11.33,7.23,21.78,7.14,31.94v1.1c-.04,4.08-.07,8.29-.65,12.49-1.32,9.51-4.07,18.08-8.18,25.47-6.38,11.47-13.63,20.55-22.16,27.75-12.79,10.8-27.26,17.17-43,18.94-2.52.28-5.09.42-7.7.42ZM30.7,485.82s-.05.03-.08.04c-1.14.4-2.34.7-3.49.98-2.27.56-4.62,1.15-6.62,2.55-5.31,3.73-8.99,9.36-11.58,17.74-2.88,9.34-4.78,19.08-5.62,28.94-.31,3.58-.54,7.23-.76,10.75-.26,4.04-.52,8.22-.9,12.31-.72,7.7-.86,15.85-.43,24.23.45,8.65,1.13,18.92,2.81,29.44,2.56,16.09,7.35,30.62,14.65,44.41,8.45,15.98,20.41,29.87,35.54,41.29,14.14,10.68,30.46,18.54,48.51,23.38,10.43,2.8,20.4,3.69,29.65,2.65,15.6-1.75,29.95-8.07,42.64-18.78,8.47-7.15,15.67-16.16,22-27.56,4.06-7.31,6.78-15.79,8.09-25.22.58-4.15.61-8.34.64-12.4v-1.1c.09-10.05-2.22-20.41-7.08-31.65-7.44-17.24-19.22-32.44-38.19-49.31-16.14-14.35-33.81-26.02-55.37-39.12-14.07-8.55-30.53-18.34-47.75-26.26-10.26-4.72-18.42-6.96-26.46-7.27-.07,0-.13-.03-.18-.06Z"/>
        <path class="cls-1" d="M251.22,572.61c-1.64,0-3.33-.91-4.58-1.99-1.53-1.31-3.15-2.57-4.73-3.79-2.22-1.72-4.51-3.5-6.6-5.47-12-11.35-25.35-20.86-38-29.64-6.67-4.63-13.56-9.19-20.22-13.6-8.08-5.35-16.44-10.88-24.5-16.6-15.22-10.79-26.04-20.93-34.05-31.89-16.46-22.5-24.47-47.55-23.8-74.44.1-4.06,1-8.32,2.66-12.68,3.16-8.26,8.87-13.89,17.45-17.22.17-.07.35-.08.52-.04.07-.02.15-.02.23-.02,1.25.04,2.53.03,3.77.01,3.9-.05,7.93-.09,11.87,1.62,8.09,3.52,15.61,8.67,22.98,15.74,11.66,11.17,22.74,24.75,33.88,41.5,15.48,23.28,28.83,45.31,40.79,67.32,10.59,19.48,18.2,36.22,23.95,52.66,2.59,7.41,4.03,14.26,4.41,20.94.16,2.94-1.34,5.52-4.11,7.08-.6.34-1.24.48-1.9.48ZM115.39,367.1c-8.01,3.13-13.33,8.4-16.28,16.1-1.59,4.15-2.44,8.21-2.54,12.05-.66,26.46,7.23,51.12,23.44,73.28,7.9,10.8,18.58,20.8,33.63,31.47,8.03,5.7,16.38,11.22,24.45,16.56,6.67,4.41,13.57,8.98,20.26,13.62,12.7,8.81,26.12,18.38,38.22,29.81,2.02,1.91,4.28,3.66,6.46,5.35,1.59,1.23,3.24,2.51,4.8,3.85,1.61,1.38,3.33,1.89,4.39,1.29,1.25-.71,3.33-2.34,3.17-5.34-.36-6.5-1.77-13.18-4.3-20.42-5.72-16.35-13.29-33-23.83-52.39-11.94-21.97-25.25-43.94-40.7-67.18-11.06-16.64-22.06-30.11-33.62-41.19-7.22-6.92-14.56-11.95-22.44-15.38-3.58-1.56-7.24-1.51-11.12-1.47-1.26.01-2.56.03-3.85-.01-.05,0-.1,0-.14-.02Z"/>
        <path class="cls-1" d="M14.16,316.72c-.84,0-1.63-.18-2.35-.53-1.75-.85-3.01-2.66-3.65-5.21-1.56-6.26-.77-12.63.21-18.03,2.2-12.13,5.45-23.68,9.64-34.32,2.94-7.46,4.6-14.65,4.93-21.37.32-6.41-1.28-12.59-2.88-17.8-1.47-4.78-3.13-9.58-4.73-14.23-2.72-7.9-5.54-16.06-7.53-24.35-1.96-8.15-4.12-17.83-5.24-27.88-.17-1.57-.18-3.17-.19-4.72,0-2.37-.02-4.61-.58-6.75-1.19-4.56-.66-9.06-.16-13.41.24-2.04.48-4.15.54-6.22.21-7.24,2.29-14.46,4.51-21.18,2.8-8.49,5.97-18.1,16.65-21.33.1-.03.21-.01.29.05.07-.05.17-.08.27-.05.65.14,1.28.18,1.96.22.9.06,1.83.12,2.82.42,8.97,2.7,13.61,9.74,16.97,16.27,8.61,16.73,10.72,34.99,11.66,50.65.71,11.85.56,22.15-.45,31.49-.17,1.58-.33,3.17-.49,4.76-.4,3.93-.81,7.99-1.38,11.93-.66,4.52-1.51,9.09-2.33,13.51-.85,4.56-1.72,9.27-2.39,13.94-1.24,8.66.01,16.67,1.4,23.37.32,1.52.66,3.04,1.01,4.56,1.07,4.65,2.18,9.45,2.24,14.22.08,5.46-1.29,11.27-4.08,17.28-4.74,10.22-12.45,17.91-18.64,23.47-4.1,3.68-9.07,7.81-14.9,10.49-1.09.5-2.15.76-3.15.76ZM23.65,80.02s-.06.04-.1.05c-10.33,3.12-13.31,12.15-16.19,20.88-2.2,6.67-4.27,13.83-4.47,20.98-.06,2.1-.31,4.22-.55,6.28-.5,4.29-1.01,8.72.14,13.15.58,2.23.59,4.62.6,6.93,0,1.53.01,3.11.18,4.64,1.11,10.01,3.26,19.66,5.22,27.79,1.99,8.26,4.8,16.41,7.52,24.29,1.6,4.65,3.26,9.46,4.74,14.25,1.62,5.27,3.24,11.53,2.91,18.05-.34,6.8-2.01,14.07-4.98,21.6-4.18,10.6-7.41,22.1-9.61,34.18-.97,5.33-1.75,11.6-.22,17.74.58,2.34,1.72,3.99,3.28,4.75,1.4.69,3.1.61,4.92-.23,5.74-2.65,10.66-6.73,14.73-10.38,6.14-5.51,13.78-13.14,18.47-23.24,2.74-5.91,4.09-11.62,4.01-16.97-.07-4.69-1.17-9.46-2.23-14.07-.35-1.53-.7-3.05-1.02-4.57-1.4-6.76-2.66-14.84-1.41-23.61.67-4.69,1.55-9.41,2.4-13.97.82-4.41,1.67-8.97,2.32-13.48.57-3.92.98-7.98,1.38-11.9.16-1.59.32-3.18.49-4.76,1.01-9.31,1.16-19.57.45-31.37-.93-15.59-3.03-33.76-11.58-50.37-3.29-6.4-7.83-13.29-16.56-15.92-.91-.28-1.81-.34-2.67-.39-.67-.05-1.36-.09-2.05-.24-.05,0-.09-.03-.13-.05Z"/>
        <path class="cls-1" d="M22.06,785.4h1.07c-4.23-3.64-9.77-5.28-16.56-4.88-2.22.13-4.45.79-6.58,1.61v.75c2.15-.84,4.4-1.53,6.62-1.66,6.35-.38,11.45,1,15.44,4.18Z"/>
        <path class="cls-1" d="M140.52,169.34c-7.59,0-13.7-4.18-17.49-12.25-2.58-5.5-3.7-10.98-4.45-15.61-1.39-8.52-.99-17.66,1.18-27.17,3.74-16.4,10.66-32.13,20.57-46.75,8.22-12.13,17.77-23.1,28.37-32.6,5.78-5.18,12.51-9.78,19.99-13.68,7.73-4.03,15.2-6.89,22.83-8.74.1-.02.2,0,.28.05.06-.04.13-.07.21-.06,1.7.08,3.45,0,5.15-.08,3.11-.15,6.33-.29,9.41.56,13.5,3.72,16.7,16.21,17.41,23.32,1.49,14.98-1.5,29.91-8.89,44.37-7.24,14.17-16.65,27.31-28.77,40.19-9.16,9.73-19.03,19.99-30.18,29.11l-.88.72c-7.26,5.95-14.78,12.1-23.53,15.98-3.99,1.77-7.75,2.64-11.21,2.64ZM211.79,13.18s-.07.04-.12.05c-7.58,1.84-14.99,4.68-22.68,8.68-7.43,3.87-14.1,8.44-19.84,13.58-10.56,9.46-20.07,20.38-28.26,32.47-9.86,14.54-16.74,30.19-20.47,46.51-2.15,9.42-2.54,18.47-1.17,26.89.75,4.59,1.85,10.01,4.39,15.42,7.29,15.56,20.55,12.49,27.8,9.27,8.66-3.84,16.14-9.96,23.37-15.88l.88-.72c11.12-9.1,20.97-19.34,30.11-29.05,12.07-12.83,21.45-25.92,28.66-40.03,7.33-14.34,10.3-29.13,8.82-43.98-.69-6.93-3.8-19.1-16.9-22.71-2.98-.82-6.14-.68-9.2-.53-1.71.08-3.48.16-5.22.08-.07,0-.13-.02-.18-.06Z"/>
        <path class="cls-1" d="M126.42,682.48c-2.48,0-4.95-.23-7.42-.7-7.32-1.39-15.09-3.16-22.34-6.68-17.2-8.35-29.59-17.56-39-28.99-14.34-17.41-20.8-35.98-19.75-56.76.28-5.46,1.32-10.92,3.28-17.18,3.25-10.35,9.78-17.38,19.39-20.9.97-.36,2-.51,2.99-.66,1.28-.19,2.5-.37,3.62-.95.12-.06.25-.05.35.02.06-.04.14-.07.22-.06.73.05,1.45.09,2.18.13,2.12.12,4.31.24,6.49.52,8.45,1.08,16.94,3.84,27.52,8.94,10.85,5.23,21.48,12.43,33.43,22.68,12.61,10.8,21.63,22.82,27.57,36.74,2.49,5.85,3.9,12.35,4.42,20.46.31,4.76-1.07,9.84-2.13,13.24-3.85,12.4-11.33,21.12-22.21,25.92-6.4,2.82-12.55,4.22-18.61,4.22ZM67.55,550.27s-.03.02-.04.02c-1.23.63-2.55.83-3.83,1.01-1,.15-1.95.29-2.86.62-9.4,3.44-15.78,10.32-18.97,20.45-1.95,6.2-2.98,11.6-3.25,17-1.04,20.59,5.37,39,19.59,56.27,9.35,11.35,21.67,20.5,38.77,28.81,7.18,3.49,14.9,5.24,22.17,6.62,8.35,1.58,16.74.45,25.63-3.48,10.69-4.72,18.04-13.29,21.83-25.49,1.04-3.35,2.39-8.34,2.09-12.98-.51-8.03-1.9-14.45-4.36-20.22-5.89-13.82-14.85-25.75-27.38-36.49-11.91-10.2-22.49-17.38-33.28-22.58-10.51-5.06-18.94-7.8-27.31-8.88-2.16-.28-4.33-.4-6.44-.52-.73-.04-1.45-.08-2.18-.13-.07,0-.12-.03-.17-.06Z"/>
        <path class="cls-1" d="M126.59,702.25c-3.47,0-7.03-.28-10.67-.84-10.76-1.65-21.19-5.17-31-10.46-17.77-9.57-30.81-19.89-41.03-32.47-14.23-17.51-22.01-37.9-23.78-62.33-.47-6.42-.31-13.14.48-19.97.88-7.58,2.4-17.52,6.43-27.15,5.4-12.9,12.61-19.64,23.37-21.87.63-.13,1.31-.14,1.97-.15,1.41-.02,2.75-.04,3.77-1.14.12-.13.31-.14.45-.05.06-.04.13-.06.21-.06,8.07.37,16.06,1.92,24.42,4.71,11.64,3.89,23.2,9.38,35.35,16.78,19.22,11.7,33.45,23.09,44.81,35.85,8.6,9.67,14.88,19.09,19.19,28.8,7.06,15.89,8.25,31.77,3.55,47.19-3.09,10.13-8.8,19.15-16.95,26.8-11.59,10.87-25.19,16.35-40.55,16.35ZM56.58,526.4c-1.22,1.26-2.81,1.29-4.21,1.31-.65,0-1.27.02-1.84.14-10.52,2.18-17.57,8.8-22.88,21.46-4,9.55-5.51,19.42-6.38,26.95-.78,6.78-.94,13.46-.48,19.84,1.76,24.28,9.49,44.54,23.63,61.94,10.16,12.51,23.14,22.77,40.82,32.3,9.74,5.25,20.1,8.74,30.78,10.38,19.56,3.01,36.61-2.15,50.65-15.33,8.07-7.57,13.71-16.48,16.76-26.5,4.65-15.25,3.47-30.96-3.52-46.69-4.28-9.65-10.52-19.01-19.07-28.62-11.31-12.71-25.49-24.06-44.65-35.72-12.1-7.37-23.62-12.83-35.21-16.71-8.3-2.78-16.23-4.31-24.24-4.68-.06,0-.12-.02-.17-.06Z"/>
        <path class="cls-1" d="M275.1,355.38c-.53,0-1.07-.04-1.6-.13-8.31-1.34-15.08-5.49-20.69-12.67-7.58-9.71-11.06-21.34-14.42-32.58l-.43-1.42c-1.73-5.78-2.9-11.79-4.03-17.6-.48-2.46-.97-4.99-1.5-7.48-1.06-4.99-1.12-10.13-1.18-15.11-.01-.96-.02-1.92-.04-2.87-.08-4.09.29-8.39,1.06-12.43,1.51-7.94,3.48-17.11,7.68-25.5,9.17-18.3,20.33-32.8,34.12-44.32,10.84-9.05,21.91-14.72,33.84-17.34.97-.21,1.98-.21,2.95-.21,1.73,0,3.37,0,4.78-1.13.12-.1.29-.1.41-.01.05-.04.11-.06.18-.06,7.18-.41,14.85.45,22.8,2.55.9.24,1.8.47,2.7.7,7.36,1.9,14.96,3.86,21.39,8.72,5.98,4.53,6.82,8.51,3.23,15.21-2.22,4.15-5.5,7.38-8.67,10.52-.52.51-1.04,1.03-1.56,1.54-2.7,2.71-5.53,5.39-8.26,7.97-5.5,5.2-11.19,10.58-16.15,16.55-8.93,10.74-15.56,22.04-20.28,34.57-4.73,12.57-6.25,25.98-7.71,38.95-.25,2.25-.51,4.49-.78,6.74-1.04,8.63-2.6,18.8-6.36,28.73-2.55,6.75-6.99,11.99-13.18,15.56-1.76,1.01-4.98,2.55-8.33,2.55ZM310.56,166.42c-.84,0-1.7.02-2.5.19-11.83,2.59-22.8,8.22-33.55,17.19-13.72,11.46-24.82,25.88-33.95,44.1-4.16,8.31-6.12,17.43-7.62,25.32-.76,3.99-1.12,8.24-1.05,12.28.02.96.03,1.91.04,2.88.06,4.94.11,10.05,1.16,14.97.53,2.49,1.02,5.03,1.5,7.49,1.13,5.8,2.29,11.79,4.02,17.53l.43,1.42c3.35,11.18,6.81,22.74,14.3,32.34,5.5,7.04,12.12,11.1,20.26,12.41,3.68.59,7.52-1.22,9.48-2.35,6.05-3.49,10.38-8.6,12.88-15.2,3.73-9.86,5.29-19.97,6.32-28.56.27-2.24.52-4.49.78-6.73,1.47-13.01,2.98-26.47,7.75-39.13,4.74-12.6,11.42-23.97,20.4-34.77,4.99-6,10.69-11.39,16.21-16.61,2.73-2.58,5.55-5.25,8.25-7.96.52-.52,1.04-1.03,1.56-1.55,3.28-3.24,6.37-6.29,8.54-10.35,3.42-6.39,2.66-10-3.04-14.32-6.32-4.79-13.85-6.73-21.14-8.61-.9-.23-1.81-.47-2.71-.7-7.88-2.08-15.48-2.93-22.59-2.52-.08,0-.15-.02-.21-.06-1.6,1.27-3.43,1.26-5.2,1.26-.1,0-.2,0-.3,0Z"/>
        <path class="cls-1" d="M278.77,390.27c-2.42,0-4.84-.27-7.24-.8-13.41-2.98-24.89-10.8-35.09-23.89-9.56-12.27-16.7-26.7-22.5-45.42-4.55-14.71-7.47-30.23-8.91-47.44-.75-8.95.05-18.6,2.46-29.51,2.87-12.96,8.48-25.76,17.16-39.13,12.19-18.79,26.88-34.72,43.64-47.36,14.01-10.56,26.6-16.73,39.64-19.4,1.42-.29,2.88-.47,4.29-.64,2.49-.3,5.06-.61,7.44-1.57.11-.04.23-.03.32.04.06-.04.12-.06.2-.06.23.02.5,0,.75,0,1.74,0,3.48-.02,5.22-.05,6.43-.08,13.08-.17,19.54.94l3.01.51c7.27,1.23,14.78,2.51,22.12,4.1,11.96,2.59,24.47,6.15,34.95,14.55,8.59,6.89,15.27,20.24,10.83,34.53-2.97,9.55-8.9,17.9-18.67,26.3-4.93,4.23-10.23,8.15-15.36,11.94-4.8,3.55-9.77,7.22-14.43,11.14-14.38,12.13-24.2,26.3-30,43.3-3.31,9.7-4.86,19.97-6.36,29.9-.19,1.29-.39,2.58-.59,3.87-.25,1.59-.48,3.19-.72,4.79-1.07,7.22-2.18,14.68-4.08,21.89-5.21,19.85-13.86,32.94-27.22,41.18-6.78,4.18-13.62,6.29-20.42,6.29ZM319.98,135.72s-.04.03-.07.04c-2.46.99-5.08,1.31-7.62,1.61-1.4.17-2.84.34-4.23.63-12.93,2.65-25.44,8.78-39.36,19.28-16.7,12.59-31.32,28.47-43.47,47.19-8.63,13.3-14.21,26.02-17.06,38.9-2.4,10.83-3.2,20.41-2.45,29.29,1.44,17.16,4.35,32.63,8.88,47.29,5.77,18.64,12.88,33,22.38,45.2,10.1,12.96,21.44,20.69,34.69,23.64,8.98,2,18.11.18,27.16-5.4,13.19-8.14,21.74-21.09,26.91-40.76,1.88-7.17,2.99-14.62,4.06-21.82.24-1.6.47-3.19.72-4.79.2-1.29.39-2.58.59-3.87,1.5-9.96,3.06-20.27,6.39-30.03,5.85-17.13,15.73-31.4,30.21-43.61,4.67-3.94,9.65-7.62,14.46-11.17,5.12-3.78,10.41-7.69,15.32-11.91,9.67-8.31,15.54-16.56,18.46-25.98,4.34-13.97-2.19-27.03-10.6-33.77-10.36-8.31-22.78-11.84-34.66-14.41-7.33-1.59-14.83-2.86-22.09-4.1l-3.01-.51c-6.4-1.09-13.02-1.01-19.42-.92-2,.03-3.99.05-5.99.04-.07,0-.14-.02-.2-.06Z"/>
        <path class="cls-1" d="M257.71,0h-2.05c2.76,5.52,4.44,11.87,5.11,19.35.94,10.64.14,20.81-2.4,30.25-2.84,10.56-7.74,21.36-15.43,34-7.47,12.28-16.94,24.43-28.97,37.16-15.1,15.98-31.34,32.83-49.21,47.76-7.71,6.44-14.06,10.69-20.59,13.78-4.63,2.19-9.95,2.54-15.37,1-5.11-1.45-9.32-5.27-12.87-11.69-5.68-10.26-6.69-21.66-7.66-32.68-.2-2.26.05-4.49.31-6.85.17-1.5.34-3.04.38-4.58.21-7.37,1.9-14.61,3.53-21.63l.11-.45c3.19-13.7,9.49-26.04,15.24-36.31,13.17-23.52,29.68-42.83,49.08-57.39,6.41-4.81,12.5-8.67,18.48-11.72h-3.97c-5.07,2.8-10.23,6.18-15.61,10.21-19.61,14.72-36.29,34.22-49.59,57.97-5.81,10.38-12.19,22.88-15.43,36.8l-.11.45c-1.65,7.1-3.36,14.44-3.57,22-.04,1.46-.21,2.97-.37,4.43-.26,2.34-.53,4.77-.32,7.22.99,11.22,2.02,22.82,7.89,33.43,3.8,6.87,8.38,10.99,13.98,12.57,2.39.68,4.76,1.01,7.08,1.01,3.36,0,6.59-.71,9.57-2.12,6.68-3.16,13.15-7.48,20.98-14.03,17.95-14.99,34.23-31.89,49.37-47.91,12.11-12.82,21.67-25.08,29.2-37.47,7.78-12.8,12.75-23.76,15.64-34.49,2.59-9.65,3.42-20.05,2.46-30.91-.65-7.33-2.26-13.62-4.89-19.18Z"/>
        <path class="cls-1" d="M126.37,718.93c-3.69,0-7.48-.26-11.34-.78-10.07-1.36-20.4-4.45-31.56-9.43-11.2-4.99-21.84-11.56-31.63-19.51-12.75-10.36-22.97-22.79-30.36-36.95-6.51-12.47-10.85-25.56-13.26-40.02-1.59-9.55-2.19-19.05-2.76-29.59-.31-5.68.23-11.47.74-17.07.19-2.04.38-4.09.52-6.13.79-10.85,2.41-20.4,4.94-29.2,2.76-9.58,6.59-20.32,17.16-26.5,1.63-.95,3.33-1.47,4.98-1.97,1.18-.36,2.3-.7,3.38-1.19.18-.08.38-.1.57-.06.06-.01.13-.03.2-.02,1.13,0,2.26-.01,3.39-.03,3.86-.07,7.85-.14,11.73.9,14.14,3.79,27.21,10.1,37.03,15.18,6.19,3.2,13.46,7.03,20.42,11.17,18.72,11.14,42.7,26.65,62.13,47.91,8.04,8.8,14.11,17.45,18.57,26.46,8.58,17.34,11.64,32.55,9.63,47.88-1.15,8.77-3.08,15.8-6.07,22.14-7.39,15.67-18.05,27.86-31.69,36.22-9.65,5.92-19.82,9.38-30.21,10.3-2.13.19-4.3.28-6.51.28ZM37.79,502.36c-1.14.5-2.31.86-3.45,1.2-1.62.49-3.15.96-4.59,1.8-9.97,5.84-13.65,16.17-16.31,25.41-2.5,8.68-4.1,18.1-4.88,28.82-.15,2.05-.34,4.11-.53,6.16-.51,5.53-1.03,11.25-.73,16.79.56,10.48,1.16,19.92,2.74,29.38,2.38,14.26,6.65,27.16,13.07,39.45,7.28,13.93,17.33,26.17,29.88,36.37,9.66,7.85,20.16,14.33,31.22,19.26,11,4.91,21.17,7.95,31.06,9.28,6.04.82,11.91.98,17.44.49,10.11-.89,20.01-4.27,29.42-10.04,13.52-8.29,23.65-19.88,30.98-35.43,2.9-6.16,4.78-13.02,5.9-21.58,1.96-14.94-1.04-29.8-9.45-46.79-4.38-8.85-10.36-17.36-18.27-26.03-19.15-20.96-41.94-35.81-61.71-47.57-6.92-4.12-14.16-7.93-20.33-11.12-9.73-5.03-22.69-11.29-36.66-15.03-3.63-.97-7.49-.9-11.22-.84-1.14.02-2.29.04-3.43.03-.05,0-.11,0-.16-.01Z"/>
        <path class="cls-1" d="M377.15,575.47c-.47,0-.93-.02-1.38-.07-6.3-.61-11.93-4-16.28-9.79-5.42-7.22-9.79-14.92-13-22.89-4.42-10.98-8.24-22.39-11.94-33.43-1.53-4.56-3.11-9.27-4.7-13.89-5.2-15.01-13.75-25.81-26.16-33.01-5.63-3.27-11.46-6.4-17.09-9.42-5.24-2.81-10.66-5.72-15.91-8.74-21.07-12.1-39.19-27.75-53.86-46.5-16.29-20.82-28.51-41.58-37.39-63.45-5.23-12.89-9.21-27.14-11.85-42.35-1.65-9.51-1.72-18.85-1.64-29.21.06-7.33,1.48-14.27,2.86-20.09,3.35-14.12,9.59-27.88,19.64-43.3,11.5-17.66,25.77-33.3,38.23-46.58,4.84-5.16,10.15-9.99,15.29-14.67,1.68-1.53,3.36-3.05,5.02-4.59,15.77-14.59,28.78-24.54,42.18-32.26,11.62-6.69,21.91-10.59,32.4-12.28,1.08-.17,2.18-.18,3.24-.18,1.97,0,3.83,0,5.45-1.08.22-.14.47-.18.7-.13.07-.02.14-.02.21-.02,2.17.03,4.34.23,6.45.41,1.01.09,2.02.18,3.02.25,9.2.66,18.69,2.66,30.79,6.48,11.9,3.76,23.82,8.3,35.41,13.49,18.24,8.17,30.64,16.88,40.23,28.24,5.25,6.23,8.78,12.31,10.77,18.6,3.44,10.82,4.47,19.54,3.36,28.28-1.41,11.07-4.21,20.78-8.58,29.67-4.8,9.76-11.55,19.2-21.25,29.7-5.1,5.52-10.63,10.76-15.98,15.83-7.53,7.14-15.32,14.51-21.97,22.74-7.3,9.02-12.51,19.74-15.49,31.85-2.42,9.84-3.72,20.07-4.83,29.7-1.22,10.5-2.41,18.99-3.75,26.73-1.64,9.47-3.7,19.12-6.31,29.51-.35,1.41-.71,2.82-1.07,4.23-3.01,11.76-6.11,23.91-5.28,36.45.2,3.08.82,5.63,1.93,8.02,4.17,8.98,11.99,14.15,19.64,18.67,2.31,1.37,4.68,2.71,6.98,4.01,7.11,4.03,14.46,8.19,20.98,13.56,10.94,9,14.54,20.43,11.33,35.96-1.53,7.39-3.82,14.8-6.81,22.02-5.36,12.94-12.52,22.55-21.9,29.36-3.68,2.67-7.87,4.14-11.7,4.14ZM331.04,89.41c-2.01,1.23-4.15,1.23-6.22,1.24-1.04,0-2.01,0-2.95.15-10.26,1.65-20.36,5.49-31.78,12.06-13.27,7.64-26.18,17.52-41.84,32.01-1.67,1.54-3.35,3.07-5.03,4.6-5.11,4.65-10.4,9.47-15.19,14.57-12.41,13.22-26.61,28.79-38.03,46.32-9.92,15.24-16.08,28.81-19.38,42.71-1.36,5.72-2.75,12.53-2.81,19.67-.08,10.26-.01,19.51,1.61,28.87,2.61,15.08,6.56,29.2,11.74,41.96,8.8,21.71,20.95,42.32,37.12,63,14.52,18.57,32.46,34.06,53.33,46.04,5.23,3,10.64,5.91,15.86,8.71,5.65,3.03,11.49,6.17,17.15,9.45,12.81,7.43,21.63,18.56,26.98,34.01,1.6,4.63,3.18,9.35,4.71,13.91,3.69,11.01,7.5,22.4,11.9,33.32,3.15,7.82,7.44,15.38,12.76,22.47,4.02,5.37,9.21,8.5,14.99,9.06,3.74.36,8.06-1,11.83-3.74,9.09-6.61,16.05-15.95,21.27-28.56,2.94-7.11,5.2-14.41,6.7-21.68,3.05-14.77-.35-25.61-10.69-34.12-6.4-5.26-13.68-9.39-20.72-13.38-2.3-1.31-4.69-2.66-7.01-4.03-7.9-4.67-15.99-10.03-20.38-19.49-1.21-2.61-1.88-5.38-2.1-8.69-.85-12.84,2.29-25.15,5.34-37.05.36-1.41.72-2.81,1.07-4.22,2.6-10.34,4.65-19.95,6.28-29.37,1.33-7.7,2.52-16.16,3.73-26.63,1.12-9.69,2.43-19.98,4.88-29.93,3.05-12.38,8.38-23.34,15.85-32.58,6.73-8.32,14.57-15.74,22.14-22.92,5.33-5.05,10.84-10.26,15.89-15.74,9.58-10.36,16.23-19.65,20.94-29.25,4.27-8.7,7.02-18.22,8.4-29.08,1.07-8.45.06-16.92-3.29-27.46-1.92-6.05-5.33-11.93-10.42-17.96-9.4-11.14-21.61-19.7-39.58-27.75-11.53-5.16-23.38-9.68-35.22-13.42-11.96-3.78-21.32-5.75-30.37-6.4-1.02-.07-2.03-.16-3.05-.25-2.07-.18-4.21-.37-6.31-.41-.03,0-.07,0-.1,0Z"/>
        <path class="cls-1" d="M147.73,153.57c-3.11,0-6.06-.87-8.9-2.61-4.06-2.49-6.77-6.64-8.06-12.33-2.02-8.92-1.61-18.74,1.22-29.18,2.42-8.91,6.3-17.79,11.86-27.13,8.8-14.77,19.34-26.53,32.24-35.93,7.37-5.38,15.37-9.16,24.44-11.55.1-.03.2,0,.28.05.06-.04.12-.06.2-.06.82,0,1.63,0,2.45-.02,1.77-.02,3.6-.04,5.4.03,6.65.26,11.89,3.38,15.56,9.3,4.58,7.36,3.96,15.73,2.93,23.67-1.15,8.92-4.83,17.96-11.55,28.43-8,12.46-18.09,24.01-31.73,36.36-9.81,8.88-18.6,14.89-27.66,18.94-3.04,1.36-5.93,2.04-8.68,2.04ZM200.82,35.46s-.07.04-.11.05c-8.99,2.38-16.91,6.12-24.21,11.45-12.82,9.35-23.3,21.03-32.05,35.72-5.53,9.29-9.39,18.11-11.79,26.96-2.8,10.32-3.21,20.03-1.21,28.83,1.25,5.51,3.85,9.51,7.74,11.89,5.13,3.15,10.67,3.32,16.94.53,9-4.01,17.73-9.99,27.48-18.82,13.6-12.31,23.65-23.82,31.62-36.22,6.67-10.38,10.31-19.32,11.45-28.14,1.01-7.82,1.62-16.05-2.83-23.2-3.55-5.71-8.6-8.73-15.01-8.97-1.79-.07-3.61-.05-5.37-.03-.82,0-1.64.02-2.46.02-.07,0-.14-.02-.2-.06Z"/>
        <path class="cls-1" d="M202.86,512.92c-3.39,0-6.58-.27-9.84-1.51-20.22-7.71-38.02-18.91-52.92-33.27-9.13-8.81-16.04-19-20.53-30.28-6.07-15.23-7.8-28.31-5.46-41.15,1.29-7.12,5.03-12.17,11.09-15.02.84-.39,1.71-.37,2.56-.34,1.05.03,2.05.06,2.85-.75.12-.12.3-.13.44-.04.07-.05.15-.07.23-.06,7.58.8,14.5,3.78,20.56,8.84,9.29,7.76,17.42,16.74,24.84,27.46,10.55,15.23,19.78,32.18,28.23,51.81,3.6,8.36,7.05,17.36,6.28,27.24-.23,3.01-3.11,6.97-5.85,7.03-.84.02-1.67.04-2.48.04ZM127.14,392.03c-.58,0-1.13.05-1.65.29-5.85,2.75-9.45,7.63-10.7,14.51-2.31,12.71-.59,25.66,5.43,40.76,4.45,11.19,11.31,21.29,20.37,30.03,14.83,14.3,32.55,25.45,52.68,33.13,3.92,1.5,7.78,1.53,12.05,1.43,2.37-.06,4.97-3.71,5.18-6.38.76-9.73-2.51-18.28-6.23-26.91-8.43-19.59-17.64-36.5-28.16-51.69-7.39-10.67-15.47-19.61-24.71-27.32-5.96-4.97-12.75-7.9-20.19-8.68-.06,0-.11-.03-.16-.06-1,.97-2.18.94-3.31.91-.2,0-.4-.01-.6-.01Z"/>
        <path class="cls-1" d="M296.66,0c0,.56,0,1.12,0,1.67,0,4.32,0,8.79-.64,13.18l-.23,1.59c-.63,4.31-1.28,8.76-2.18,13.1-3.09,14.86-10.63,27.29-16.85,36.46-6.99,10.3-15.34,20.7-27.08,33.71-9.6,10.64-20.49,22.71-31.65,33.89-13.21,13.24-26.96,27.66-42.03,44.1l-2.06,2.25c-7.98,8.72-16.24,17.73-24.89,26.07-4.43,4.27-8.29,7.4-12.14,9.84-7.95,5.03-15.13,5.18-21.93.45-4.1-2.85-7.64-6.44-10.5-10.65-11.06-16.29-13.57-35.17-14.63-53.14-.79-13.37-.66-24.35.43-34.56.12-1.18.24-2.36.35-3.54.37-3.82.75-7.77,1.51-11.49,2.83-13.86,7.48-27.65,13.81-40.99,6.4-13.48,14.12-26.53,22.95-38.78,6.75-9.36,12.87-16.83,18.99-23.14h-.97c-5.98,6.23-11.98,13.58-18.58,22.73-8.85,12.28-16.6,25.37-23.02,38.89-6.36,13.39-11.02,27.23-13.86,41.15-.77,3.76-1.15,7.73-1.52,11.57-.11,1.18-.23,2.36-.35,3.54-1.09,10.24-1.23,21.26-.43,34.67,1.07,18.08,3.6,37.07,14.75,53.5,2.91,4.28,6.5,7.93,10.67,10.83,3.43,2.38,6.94,3.57,10.59,3.57,3.86,0,7.88-1.33,12.1-4.01,3.9-2.47,7.79-5.62,12.25-9.92,8.66-8.35,16.92-17.37,24.91-26.1l2.06-2.25c15.06-16.43,28.8-30.84,42.01-44.08,11.17-11.2,22.06-23.27,31.67-33.92,11.76-13.04,20.13-23.46,27.14-33.79,6.26-9.22,13.84-21.73,16.95-36.71.91-4.36,1.56-8.83,2.19-13.14l.23-1.59c.65-4.44.65-8.93.65-13.28,0-.55,0-1.11,0-1.67h-.69Z"/>
        <path class="cls-1" d="M405.38,80.93c5.75,3.69,11.72,7.23,17.49,10.66,10.88,6.45,22.13,13.12,32.31,21.07,12.71,9.92,21,19.74,26.11,30.91,3.55,7.77,5.56,16.28,5.96,25.3.54,11.96-1.1,23.68-4.87,34.84-4.83,14.28-12.32,28.06-22.91,42.14-7.5,9.96-15.69,19.61-23.62,28.94l-3.8,4.48c-7.11,8.39-15.99,19.74-21.56,33.12-2.89,6.94-4.52,14.2-4.82,21.57-.06,1.41-.24,2.84-.41,4.22-.26,2.13-.54,4.33-.4,6.56.84,13.54,2.09,25.61,8.86,36.27,6.39,10.05,15.25,15.94,26.34,17.51,9.7,1.37,19.23.5,29.14-2.65,8.11-2.58,15.75-6.87,22.8-11.13,3.63-2.19,7.21-4.6,10.67-6.93,4.92-3.31,10.02-6.73,15.29-9.56,14.18-7.61,26.16-10.39,37.72-8.75,16.33,2.31,26.8,11.81,30.27,27.47,2.16,9.73,1.06,20.03-3.47,32.43-4.01,11-10.66,20.59-17.25,29.31l-1.95,2.58c-11.83,15.68-24.07,31.89-36.49,47.51-9.87,12.41-21.34,23.73-32.42,34.67-1.46,1.44-2.91,2.87-4.36,4.31-13.06,12.94-24.48,28.46-34.92,47.46-6.78,12.34-13.26,24.49-17.97,37.48-5.47,15.08-5.49,28.69-.06,41.6,2.42,5.75,5.47,11.28,8.42,16.62,1.89,3.42,3.84,6.95,5.6,10.51,5.74,11.57,10.2,23.96,14.51,35.94l1.34,3.72c6.99,19.36,15.56,35.92,26.21,50.65.87,1.21,1.74,2.43,2.59,3.66h.85c-.95-1.36-1.91-2.73-2.88-4.08-10.61-14.68-19.15-31.19-26.12-50.48l-1.34-3.72c-4.32-12-8.78-24.41-14.54-36.02-1.77-3.57-3.72-7.11-5.61-10.53-2.94-5.33-5.98-10.84-8.38-16.55-5.36-12.74-5.33-26.18.07-41.08,4.69-12.94,11.16-25.07,17.92-37.38,10.4-18.94,21.79-34.41,34.79-47.3,1.45-1.44,2.91-2.87,4.36-4.31,11.1-10.95,22.58-22.28,32.48-34.73,12.43-15.63,24.67-31.84,36.5-47.52l1.95-2.58c6.62-8.77,13.3-18.41,17.35-29.5,4.57-12.53,5.68-22.95,3.49-32.82-3.54-15.97-14.21-25.65-30.85-28.01-11.71-1.66-23.83,1.14-38.14,8.82-5.31,2.85-10.41,6.28-15.35,9.6-3.46,2.32-7.03,4.73-10.65,6.91-7.01,4.23-14.61,8.51-22.66,11.06-9.81,3.12-19.25,3.98-28.84,2.62-10.88-1.54-19.58-7.32-25.85-17.19-6.68-10.52-7.92-22.5-8.75-35.94-.13-2.16.13-4.33.39-6.43.17-1.4.35-2.84.41-4.28.3-7.28,1.91-14.46,4.77-21.33,5.54-13.29,14.37-24.58,21.45-32.94l3.8-4.48c7.93-9.33,16.13-18.99,23.64-28.97,10.64-14.14,18.17-27.98,23.02-42.34,3.8-11.24,5.45-23.04,4.91-35.09-.41-9.11-2.44-17.71-6.03-25.56-5.16-11.28-13.52-21.18-26.32-31.17-10.22-7.98-21.49-14.66-32.38-21.12-5.77-3.42-11.74-6.96-17.47-10.64-9.77-6.28-20.93-14.22-29.61-25.51-8.09-10.53-9.78-22.18-5.03-34.63,2.67-6.99,6.45-13.76,11.22-20.2h-.86c-4.67,6.37-8.38,13.05-11.01,19.94-4.85,12.7-3.13,24.58,5.13,35.31,8.75,11.37,19.97,19.36,29.79,25.67Z"/>
        <path class="cls-1" d="M420.38,79.69c6.76,4.9,13.96,9.34,20.92,13.64,5.69,3.51,11.56,7.14,17.16,10.99,9.09,6.26,18.59,13.28,26.43,22.2,7.52,8.56,12.35,18.84,14.37,30.54,1.36,7.91,1.03,15.78.53,22.44-.74,9.83-3.39,20.12-8.32,32.38-7.04,17.49-18.29,32.69-29.17,47.38l-.97,1.31c-2.9,3.91-5.94,7.82-8.89,11.61-5.95,7.63-12.1,15.52-17.36,23.9-4.65,7.4-9.37,15.39-11.41,24.57-3.35,15.03-2.24,26.87,3.48,37.26,4.37,7.94,10.99,12.78,20.24,14.79,10.93,2.38,20.68-1.14,29.58-5.3,6.85-3.2,13.45-7.09,19.84-10.85,5.91-3.48,12.01-7.08,18.26-10.09,11.82-5.71,22.74-9.14,33.36-10.5,15.34-1.96,28.72,1.92,40.88,11.84,7.07,5.77,11.85,13.58,15.04,24.59,2.34,8.05,3.03,17.05,2.11,27.51-2.11,24.02-10.16,43.12-24.63,58.39-9.92,10.47-20.06,21.8-31,34.64-5.21,6.11-10.31,12.49-15.24,18.65-4.51,5.63-9.17,11.45-13.89,17.05-1.95,2.31-3.91,4.62-5.86,6.93-5.68,6.71-11.56,13.65-17.21,20.58-15.89,19.48-28.33,40.99-36.95,63.93-4,10.63-3.7,21.88-3.13,29.42.44,5.84,1.75,11.94,3.89,18.14,2.51,7.27,4.94,14.72,7.28,21.92,3.5,10.74,7.11,21.84,11.1,32.62,6.9,18.65,14.91,32.68,25.2,44.14,1.67,1.86,3.36,3.7,5.06,5.54,4.01,4.36,8.1,8.82,11.87,13.54h2.37c-4.06-5.21-8.54-10.08-12.9-14.82-1.69-1.84-3.38-3.67-5.04-5.52-10.13-11.28-18.02-25.11-24.83-43.53-3.98-10.75-7.58-21.83-11.08-32.55-2.35-7.21-4.77-14.66-7.29-21.95-2.09-6.04-3.36-11.98-3.79-17.66-.9-11.85.03-20.68,3.01-28.61,8.55-22.75,20.88-44.08,36.65-63.41,5.65-6.92,11.52-13.85,17.19-20.55,1.96-2.31,3.91-4.62,5.87-6.94,4.74-5.62,9.4-11.45,13.92-17.09,4.92-6.15,10.02-12.52,15.21-18.61,10.92-12.82,21.04-24.13,30.93-34.57,14.77-15.59,22.99-35.06,25.14-59.52.94-10.7.23-19.93-2.18-28.2-3.31-11.39-8.28-19.5-15.65-25.52-12.57-10.26-26.4-14.27-42.26-12.24-10.82,1.38-21.91,4.87-33.92,10.66-6.32,3.05-12.46,6.67-18.39,10.17-6.35,3.74-12.91,7.61-19.68,10.77-8.61,4.02-18.02,7.43-28.43,5.17-8.71-1.9-14.93-6.44-19.02-13.88-5.48-9.97-6.53-21.39-3.29-35.94,1.98-8.88,6.6-16.72,11.17-23.98,5.22-8.3,11.34-16.15,17.25-23.74,2.95-3.79,6.01-7.71,8.92-11.64l.97-1.31c10.95-14.79,22.27-30.09,29.4-47.8,5.01-12.45,7.69-22.91,8.45-32.94.51-6.77.85-14.8-.55-22.91-2.08-12.05-7.06-22.64-14.81-31.46-7.97-9.08-17.58-16.18-26.77-22.5-5.63-3.88-11.53-7.52-17.24-11.04-6.93-4.28-14.09-8.7-20.8-13.56-10.62-7.69-20.59-15.63-25.99-28.24-2.56-5.97-2.99-12.73-1.29-20.07,2.58-11.12,8.51-21.15,17.63-29.86h-2.65c-8.6,8.65-14.24,18.52-16.77,29.43-1.8,7.74-1.33,14.89,1.39,21.24,5.58,13.04,16.2,21.48,26.61,29.02Z"/>
        <path class="cls-1" d="M391.24,726.68c.13.78.26,1.59.28,2.35.25,8.76,1.38,17.55,2.47,26.06.18,1.41.36,2.82.54,4.23.4,3.17.92,6.37,1.42,9.47.76,4.69,1.54,9.54,1.93,14.36.06.76.17,1.51.3,2.26h.7c-.14-.77-.26-1.55-.32-2.32-.39-4.85-1.17-9.71-1.93-14.41-.5-3.09-1.02-6.29-1.41-9.45-.18-1.41-.36-2.82-.54-4.23-1.09-8.49-2.22-17.27-2.47-25.99-.02-.8-.16-1.63-.29-2.44-.12-.7-.23-1.37-.25-1.95-.36-8.13-.77-17.34.07-26.17.1-1.1.12-2.25.14-3.35.04-2.44.07-4.97,1.05-7.36,1.23-2.99,2.43-3.64,5.6-3.01,4.1.82,7.58,3,10.95,5.12,1.11.7,2.27,1.42,3.43,2.09,14.71,8.44,25.69,21.78,32.63,39.66,2.77,7.12,5.43,14.43,8,21.5,3.89,10.67,7.89,21.63,12.38,32.32h.75c-4.53-10.76-8.57-21.82-12.48-32.56-2.58-7.07-5.24-14.38-8.01-21.51-7.01-18.03-18.09-31.49-32.94-40.01-1.15-.66-2.3-1.38-3.4-2.07-3.42-2.15-6.96-4.37-11.18-5.21-3.48-.69-5.02.14-6.37,3.43-1.03,2.51-1.07,5.11-1.1,7.61-.02,1.09-.03,2.22-.13,3.29-.84,8.89-.43,18.12-.07,26.27.03.63.14,1.31.26,2.04Z"/>
        <path class="cls-1" d="M277.37,376.06c-.9,0-1.8-.05-2.69-.15-10.96-1.23-20.42-6.53-28.92-16.21-12.6-14.35-18.57-31.88-22.74-47.14-3.23-11.83-5.34-22.77-6.43-33.46-.8-7.83-1.48-18.12.33-28.33,2.21-12.46,5.86-23.19,11.16-32.8,6.77-12.28,15.14-23.86,25.6-35.42,5.71-6.31,12.71-12.39,22.01-19.12,9.21-6.67,19.52-11.42,30.65-14.11,1.8-.44,3.66-.68,5.45-.91,2.35-.31,4.79-.62,7.09-1.39.11-.04.22-.02.3.04.05-.04.11-.06.18-.06,6.63-.41,13.77-.09,21.22.93,9.89,1.36,19.55,2.81,29.06,5.5l1.1.31c8.3,2.34,16.88,4.75,23.76,10.84,7.1,6.28,9.33,13.15,7.24,22.26-2.24,9.78-8.86,16.03-14.37,20.4-3.76,2.97-7.66,5.88-11.43,8.69-10.28,7.67-20.91,15.6-29.65,25.53-4.72,5.36-8.41,10.43-11.28,15.49-7.71,13.61-12.27,29.39-14.8,51.18-1.16,9.97-2.4,19.69-4.86,29.06-4.05,15.38-10.56,25.8-20.49,32.79-5.68,4-11.68,6.07-17.48,6.07ZM319.2,147.65s-.06.03-.09.04c-2.36.79-4.83,1.11-7.21,1.42-1.77.23-3.61.47-5.38.9-11.03,2.67-21.26,7.38-30.4,14-9.27,6.71-16.23,12.75-21.9,19.03-10.42,11.52-18.77,23.06-25.51,35.29-5.26,9.54-8.89,20.2-11.09,32.58-1.8,10.12-1.12,20.35-.32,28.13,1.09,10.65,3.18,21.56,6.41,33.35,4.15,15.18,10.08,32.62,22.59,46.86,8.38,9.54,17.69,14.76,28.48,15.98,6.46.73,13.27-1.28,19.7-5.8,9.79-6.88,16.21-17.18,20.21-32.39,2.45-9.32,3.69-19.02,4.84-28.96,2.54-21.89,7.13-37.75,14.89-51.45,2.89-5.11,6.61-10.21,11.36-15.61,8.79-9.98,19.45-17.93,29.76-25.63,3.77-2.81,7.67-5.72,11.41-8.68,5.43-4.29,11.93-10.44,14.13-20,2.02-8.83-.14-15.48-7.02-21.57-6.76-5.99-15.26-8.38-23.49-10.7l-1.1-.31c-9.47-2.68-19.1-4.12-28.97-5.48-7.4-1.02-14.49-1.33-21.08-.92-.08,0-.16-.02-.22-.06Z"/>
        <path class="cls-1" d="M302.83,439.72c-2.88,0-5.86-.3-8.96-.91-14.5-2.83-27.89-8.4-39.81-16.55-12.68-8.68-24.12-19.52-34.95-33.14-12.05-15.15-22.3-32.62-30.44-51.9-7.57-17.93-12.33-37.9-14.17-59.34-1.07-12.57-.25-24.5,2.44-35.47,3.42-13.93,9.55-27.78,18.25-41.16,12.57-19.36,28.61-38,49.03-57,15.1-14.04,28.47-24.27,42.07-32.19,10.01-5.83,20.68-9.8,32.6-12.15,1.32-.26,2.67-.26,3.97-.27,2.18,0,4.23-.01,6.15-1.11.12-.07.26-.06.37.02.06-.04.14-.06.2-.06,3.57.05,7.18.33,10.67.6l.73.06c8.38.65,16.44,2.34,23.97,4.01,10.44,2.31,21.47,5.75,33.72,10.5,19.09,7.4,31.95,16.01,41.72,27.91,6.96,8.49,11.03,17.93,12.1,28.06,1.46,13.93-1.03,27.37-7.39,39.96-6.04,11.94-14.67,22.95-27.14,34.67-3.45,3.24-7.06,6.42-10.55,9.49-6.53,5.75-13.28,11.69-19.28,18.3-10.49,11.55-17.32,25.85-20.88,43.71-2.15,10.8-3.71,21.92-5.21,32.68l-.32,2.3c-1.43,10.19-3.39,19.18-5.99,27.49-4.98,15.89-12.21,30.67-21.47,43.93-8.17,11.69-18.72,17.58-31.43,17.58ZM329.39,99.11s-.02.01-.03.02c-2.07,1.19-4.32,1.2-6.49,1.2-1.27,0-2.59,0-3.84.25-11.85,2.33-22.45,6.28-32.39,12.07-13.56,7.89-26.89,18.09-41.95,32.1-20.38,18.96-36.38,37.56-48.92,56.87-8.65,13.32-14.75,27.09-18.15,40.95-2.67,10.89-3.49,22.75-2.42,35.24,1.83,21.37,6.57,41.26,14.11,59.12,8.12,19.23,18.32,36.64,30.34,51.74,10.79,13.57,22.18,24.36,34.8,33,11.84,8.1,25.14,13.63,39.55,16.44,16.49,3.22,29.85-2.3,39.7-16.4,9.23-13.2,16.42-27.92,21.38-43.74,2.59-8.27,4.54-17.22,5.96-27.37l.32-2.3c1.5-10.76,3.06-21.89,5.22-32.72,3.59-17.99,10.47-32.4,21.05-44.05,6.03-6.64,12.79-12.59,19.34-18.35,3.48-3.07,7.09-6.24,10.53-9.47,12.42-11.66,20.99-22.61,27-34.47,6.31-12.46,8.77-25.77,7.32-39.56-1.05-9.99-5.07-19.31-11.94-27.69-9.69-11.8-22.47-20.35-41.43-27.71-12.22-4.74-23.22-8.16-33.63-10.47-7.51-1.67-15.55-3.34-23.88-3.99l-.73-.06c-3.48-.27-7.08-.55-10.63-.6-.07,0-.14-.02-.19-.06Z"/>
        <path class="cls-1" d="M177.47,785.4c.57-1.25,1.17-2.51,1.91-3.67,10.93-17.06,23.54-32.09,34.42-44.55,1.79-2.05,3.59-4.1,5.4-6.14,2.72-3.08,5.53-6.27,8.26-9.44,7.77-9,16.35-18.43,26.37-26.44,4.37-3.49,8.88-5.09,13.4-4.8,4.71.32,8.7,2.57,11.97,4.73,5.77,3.81,10.59,8.9,15.26,13.83.9.95,1.8,1.9,2.7,2.84,12.25,12.73,21.12,25.69,27.11,39.61,4.86,11.29,7.08,23.19,8.55,34.02h.7c-1.47-10.9-3.7-22.9-8.61-34.3-6.03-14-14.94-27.02-27.25-39.82-.9-.94-1.8-1.89-2.7-2.83-4.69-4.95-9.54-10.08-15.38-13.93-3.35-2.21-7.43-4.52-12.3-4.84-4.7-.32-9.37,1.35-13.88,4.94-10.07,8.04-18.67,17.5-26.47,26.53-2.73,3.16-5.54,6.35-8.26,9.43-1.8,2.04-3.6,4.09-5.4,6.14-10.9,12.47-23.52,27.53-34.48,44.63-.82,1.28-1.47,2.68-2.1,4.05h.76Z"/>
        <path class="cls-1" d="M195.87,785.4c2.1-5.01,4.64-9.71,7.16-14.12,5.42-9.48,12.45-18.09,18.61-25.41,8.88-10.55,16.8-18.87,26.56-25.14,8.92-5.73,17.73-6.17,26.92-1.34,8.09,4.25,14.12,10.55,18.95,16.15,7.15,8.28,12.72,17.96,17.04,29.6,2.21,5.97,3.81,12.38,5.03,20.26h1.86c-1.25-8.15-2.89-14.76-5.17-20.92-4.39-11.85-10.08-21.72-17.37-30.17-4.95-5.73-11.13-12.17-19.49-16.57-9.69-5.1-19.36-4.62-28.75,1.41-9.96,6.4-17.99,14.83-26.98,25.51-6.21,7.38-13.3,16.06-18.8,25.68-2.68,4.68-5.39,9.68-7.57,15.06h2.01Z"/>
        <path class="cls-1" d="M212.61,634.3c-1.77-16.75-8-32.71-19.04-48.79-6.26-9.13-13.95-17.81-24.94-28.14-10.59-9.97-22.26-18.36-33.3-25.95-10.27-7.06-20.9-13.95-31.18-20.61-11.47-7.43-23.33-15.11-34.73-23.07l-1.56-1.09c-8.82-6.16-17.95-12.53-27.29-18.28-7.63-4.69-14.87-8.02-22.14-10.18-7.16-2.13-15.41,2.88-18.02,10.92-.13.4-.28.8-.41,1.2v2.12c.05-.14.1-.29.15-.43.31-.89.63-1.77.92-2.66,2.46-7.56,10.48-12.45,17.17-10.47,7.21,2.14,14.4,5.45,21.97,10.1,9.33,5.74,18.44,12.1,27.26,18.26l1.56,1.09c11.41,7.97,23.28,15.65,34.75,23.08,10.28,6.66,20.9,13.54,31.16,20.6,11.01,7.57,22.66,15.95,33.22,25.89,10.94,10.3,18.61,18.94,24.84,28.02,10.97,15.99,17.16,31.84,18.91,48.47,1.66,15.68-.97,30.44-7.81,43.88-9.39,18.45-22.63,33-39.35,43.26-10.1,6.2-21.26,9.89-33.16,10.99-7.99.73-15.47.5-22.23-.69-12.65-2.24-25.14-6.38-37.13-12.32-17.29-8.57-31.92-20.15-43.48-34.42-9-11.11-16.19-23.42-21.37-36.59-3.23-8.21-5.6-16.56-7.38-24.79v3.13c1.7,7.29,3.88,14.65,6.74,21.91,5.21,13.23,12.44,25.61,21.48,36.77,11.62,14.34,26.32,25.99,43.71,34.6,12.04,5.97,24.59,10.13,37.31,12.38,4.23.75,8.74,1.12,13.48,1.12,2.9,0,5.88-.14,8.94-.42,12.01-1.11,23.27-4.84,33.46-11.09,16.83-10.32,30.16-24.97,39.61-43.54,6.91-13.56,9.56-28.46,7.89-44.28Z"/>
        <path class="cls-1" d="M281.6,401.56c-1.26,0-2.54-.05-3.83-.15-5.97-.46-11.58-1.96-17.15-4.58-13.39-6.29-24.49-16.48-34.95-32.07-8.46-12.61-15.2-27.26-20.61-44.8-4.37-14.18-7.16-28.33-8.29-42.05-.88-10.62-.45-20.74,1.27-30.09,2.76-15.02,8.08-28.79,16.27-42.1,8.59-13.96,19.41-27.29,33.07-40.76,14.84-14.63,28.76-24.66,43.81-31.56,10.65-4.88,20.63-7.39,30.52-7.67.24,0,.48,0,.73,0,1.01.02,1.66,0,2.18-.53.23-.23.55-.32.84-.25.07-.01.13-.02.21-.02,2.2.02,4.41.18,6.56.32,1.85.13,3.75.26,5.61.3,9.03.22,17.82,1.73,27.55,3.53,11.05,2.05,20.75,4.82,29.67,8.49,6.69,2.75,15.19,6.78,21.68,13.64,8.91,9.42,12.77,20.07,11.47,31.66-.67,5.98-1.85,10.74-3.7,14.98-5.89,13.53-16.46,23.01-25.01,29.76-2.73,2.16-5.54,4.3-8.26,6.37-8.86,6.76-18.03,13.75-25.72,22.2-6.87,7.55-12.35,16.69-16.75,27.93-4.01,10.26-5.87,20.84-7.58,31.68-.3,1.91-.59,3.82-.88,5.73-1.13,7.42-2.3,15.09-3.98,22.56-4.21,18.71-11.72,33.06-22.95,43.87-9.48,9.12-19.91,13.59-31.79,13.59ZM322.02,127.61c-.08,0-.17,0-.25,0-9.64.27-19.39,2.72-29.82,7.5-14.85,6.81-28.6,16.72-43.29,31.19-13.56,13.37-24.29,26.59-32.79,40.41-8.06,13.11-13.3,26.66-16.02,41.45-1.69,9.19-2.11,19.14-1.24,29.59,1.12,13.58,3.88,27.59,8.21,41.64,5.35,17.36,12.01,31.85,20.37,44.3,10.27,15.29,21.13,25.28,34.2,31.42,5.36,2.52,10.77,3.97,16.52,4.41,12.93,1,24.12-3.23,34.21-12.94,11.11-10.69,18.24-24.33,22.42-42.92,1.67-7.4,2.83-15.04,3.96-22.42.29-1.91.58-3.82.88-5.74,1.72-10.95,3.6-21.64,7.68-32.08,4.48-11.46,10.08-20.79,17.11-28.51,7.8-8.57,17.03-15.61,25.96-22.42,2.71-2.07,5.51-4.2,8.23-6.35,8.38-6.61,18.72-15.89,24.45-29.04,1.77-4.07,2.9-8.66,3.55-14.44,1.24-11.01-2.45-21.15-10.96-30.15-6.24-6.6-14.52-10.52-21.04-13.2-8.8-3.62-18.39-6.36-29.31-8.38-9.65-1.79-18.36-3.28-27.26-3.5-1.89-.05-3.82-.18-5.69-.31-2.12-.15-4.31-.3-6.45-.32-.01,0-.02,0-.03,0-1.04.83-2.23.81-3.2.8-.13,0-.27,0-.4,0Z"/>
        <path class="cls-1" d="M105.54,466.59c6.99,10.09,15.97,19.49,27.46,28.74,9.68,7.79,19.94,15.12,29.87,22.2,9.71,6.93,19.76,14.09,29.22,21.68,21.09,16.91,36.75,35.56,47.88,57.04,6.65,12.82,11.52,23.93,15.35,34.95,3.6,10.36,3.07,20.55-1.65,32.06-5.54,13.53-14.12,25.39-22.41,36.87-8.42,11.66-18.02,22.67-27.31,33.31l-1.18,1.36c-14.96,17.16-31.35,33.41-47.2,49.12-.49.49-.99.98-1.48,1.47h.99c.33-.32.65-.65.98-.97,15.86-15.73,32.26-31.99,47.23-49.16l1.18-1.36c9.29-10.66,18.9-21.68,27.35-33.37,8.32-11.51,16.91-23.41,22.49-37.01,4.79-11.68,5.32-22.03,1.66-32.56-3.84-11.05-8.73-22.19-15.39-35.04-11.18-21.56-26.9-40.29-48.06-57.26-9.48-7.6-19.53-14.77-29.26-21.7-9.92-7.08-20.18-14.4-29.84-22.18-11.44-9.21-20.38-18.57-27.32-28.6-9.47-13.67-16.69-29.36-22.07-47.96-3.87-13.39-5.34-24.04-4.76-34.53.38-6.88,2.29-13.41,6-20.54,5.06-9.72,12.66-16.31,22.59-19.58,8.33-2.74,16.87-1.14,24.71,4.62,11.81,8.68,21.5,19.74,29.67,29.43,14.49,17.19,27.27,35.52,38.93,52.77,6.13,9.07,12.53,18.18,18.71,26.99,8.58,12.23,17.46,24.87,25.76,37.59,11.63,17.82,20.91,34.68,28.38,51.55,7.62,17.22,11.22,34.22,11,51.99-.02,1.58-.24,3.16-.46,4.69-.23,1.58-.46,3.21-.47,4.86-.02,3.51-.65,7.04-1.25,10.45-.23,1.27-.45,2.54-.65,3.82-.28,1.81-.59,3.63-.9,5.44-.7,4.08-1.43,8.31-1.76,12.5-.74,9.51,2.76,18.04,5.89,24.41,7.3,14.85,17.82,27.76,27.98,40.23l1.01,1.24c6.77,8.31,13.82,17.26,19.18,27.39,7.84,14.81,12.45,31.41,14.37,51.86h.69c-1.92-20.57-6.55-37.28-14.45-52.19-5.39-10.18-12.47-19.17-19.26-27.5l-1.01-1.24c-10.14-12.45-20.63-25.32-27.9-40.1-3.09-6.29-6.55-14.7-5.82-24.05.32-4.16,1.05-8.36,1.75-12.43.31-1.82.63-3.63.91-5.45.2-1.27.42-2.53.64-3.8.61-3.44,1.24-7,1.26-10.57.01-1.6.24-3.21.46-4.77.22-1.55.45-3.15.47-4.78.22-17.87-3.4-34.97-11.06-52.28-7.48-16.91-16.79-33.8-28.43-51.65-8.31-12.73-17.19-25.38-25.77-37.61-6.18-8.81-12.58-17.92-18.71-26.98-11.67-17.26-24.47-35.61-38.98-52.83-8.19-9.72-17.92-20.82-29.79-29.54-8.03-5.9-16.79-7.54-25.33-4.72-10.11,3.33-17.84,10.03-22.99,19.92-3.76,7.22-5.69,13.84-6.08,20.83-.58,10.58.89,21.3,4.79,34.77,5.4,18.68,12.65,34.44,22.16,48.17Z"/>
        <path class="cls-1" d="M280.12,6.96c0-2.29,0-4.63-.2-6.96h-.69c.21,2.33.21,4.67.21,6.96,0,1.43,0,2.9.05,4.35.28,8.33-.64,16.89-2.81,26.15-3.62,15.46-11.46,28.92-17.89,38.92-12.44,19.34-28.03,36.51-41.64,50.75-17.77,18.59-36.78,38.3-56.74,56.96-8.22,7.69-15.54,12.83-23.05,16.2-3.29,1.48-6.38,2.01-9.18,1.58-6.88-1.05-12.48-4.46-16.65-10.14-9.94-13.55-12.19-29.24-13.07-42.8-.62-9.47-.48-18.17.43-26.6.75-6.95,1.6-12.49,2.68-17.41,3.27-14.94,9.41-30.25,18.77-46.8,12.01-21.24,25.42-38.52,41.02-52.83.91-.83,1.8-1.73,2.65-2.6.89-.9,1.8-1.82,2.75-2.69h-1.02c-.76.72-1.5,1.46-2.22,2.19-.85.86-1.73,1.75-2.63,2.58-15.65,14.36-29.11,31.7-41.16,53-9.39,16.61-15.55,31.98-18.84,46.99-1.08,4.95-1.94,10.51-2.69,17.49-.9,8.36-1.05,17.35-.44,26.72.89,13.66,3.16,29.48,13.21,43.17,4.28,5.84,10.04,9.34,17.1,10.42.66.1,1.33.15,2.02.15,2.37,0,4.9-.6,7.54-1.78,7.57-3.4,14.96-8.58,23.24-16.32,19.97-18.67,38.99-38.39,56.77-56.98,13.64-14.27,29.26-31.47,41.73-50.85,6.46-10.04,14.34-23.57,17.99-39.14,2.18-9.33,3.11-17.94,2.83-26.34-.05-1.44-.05-2.91-.05-4.33Z"/>
        <path class="cls-1" d="M99.72,472.13c8.02,11,18.46,19.53,29.35,28.01,7.95,6.19,16.25,12.19,24.28,17.99,8.68,6.27,17.66,12.76,26.21,19.5,17.49,13.8,30.95,28.06,41.15,43.59,9.83,14.98,16.63,30.61,20.19,46.46,3.78,16.8,1.87,33.45-5.68,49.48-6.09,12.94-14.11,24.28-24.28,37.33-5.33,6.84-11.42,13.76-18.1,20.56-15.2,15.48-30.41,27.19-46.5,35.78-6.73,3.59-13.96,6.16-19.51,8.01l-3.64,1.2c-5.16,1.7-10.42,3.44-15.63,5.37h2.03c4.61-1.67,9.26-3.2,13.82-4.7l3.64-1.2c5.58-1.85,12.85-4.44,19.62-8.05,16.15-8.63,31.42-20.37,46.67-35.91,6.7-6.83,12.81-13.76,18.15-20.62,10.2-13.09,18.24-24.46,24.36-37.46,7.62-16.18,9.54-32.98,5.73-49.94-3.59-15.93-10.41-31.64-20.29-46.69-10.24-15.6-23.74-29.91-41.3-43.76-8.56-6.76-17.55-13.25-26.24-19.52-8.02-5.79-16.32-11.79-24.26-17.97-10.85-8.45-21.25-16.94-29.22-27.87-19.74-27.07-30.85-52.03-34.97-78.53-2.22-14.31-.65-26.32,4.83-36.71,8.18-15.54,20.33-27.2,36.11-34.65,8.5-4.01,17.76-2.51,24.76,4.03,8.36,7.81,15.23,17.14,21.88,26.17.79,1.07,1.58,2.15,2.38,3.22,3.51,4.74,7.12,9.53,10.61,14.16,7.55,10.01,15.35,20.37,22.61,30.85,16.37,23.66,34.61,48.11,55.77,74.75,18.62,23.44,32.45,45.54,42.27,67.56,8.6,19.28,13.1,39.31,13.36,59.53.05,4.22,0,8.51-.06,12.65-.11,8.77-.23,17.84.68,26.78.61,5.91,1.73,11.67,3.33,17.14,4.41,15.05,13.92,27.09,23.11,38.74,6.53,8.27,13.28,16.83,18.48,26.55,6.79,12.69,11.14,26.07,13.31,40.89.25,1.74.52,3.47.79,5.2.78,5.02,1.58,10.17,1.97,15.35h.69c-.39-5.22-1.2-10.4-1.98-15.46-.27-1.73-.54-3.46-.79-5.2-2.19-14.91-6.57-28.36-13.39-41.13-5.23-9.78-12-18.36-18.55-26.65-9.15-11.59-18.61-23.58-22.99-38.5-1.59-5.42-2.7-11.14-3.3-17.01-.91-8.89-.8-17.94-.68-26.69.05-4.15.11-8.45.06-12.67-.26-20.32-4.78-40.44-13.42-59.81-9.85-22.08-23.71-44.23-42.37-67.72-21.15-26.63-39.38-51.06-55.74-74.71-7.26-10.49-15.07-20.85-22.62-30.87-3.49-4.63-7.1-9.42-10.61-14.16-.79-1.07-1.58-2.15-2.37-3.22-6.67-9.05-13.56-18.42-21.97-26.27-7.22-6.74-16.76-8.29-25.52-4.15-15.92,7.52-28.18,19.28-36.43,34.95-5.55,10.53-7.15,22.69-4.9,37.15,4.14,26.62,15.29,51.67,35.09,78.84Z"/>
        <path class="cls-1" d="M320.16,0c-.1,3.84-.3,7.23-.62,10.48-.96,9.71-2.84,17.52-5.91,24.57-5.55,12.74-14.42,22.95-22.37,31.26-11.41,11.94-23.23,23.87-34.65,35.4-13.69,13.82-27.85,28.12-41.43,42.54-1.88,2-3.76,3.99-5.65,5.98-12.51,13.23-25.44,26.92-37.03,41.45-10.1,12.67-18.97,24.51-27.12,36.18-1.14,1.63-2.26,3.27-3.39,4.91-4.84,7.08-9.85,14.39-16.03,20.63-3.22,3.26-6.62,3.26-9.83,0-7.84-7.97-14.46-17.47-20.24-29.02l-.52-1.04c-3.06-6.1-6.22-12.41-8.15-19.17-2.82-9.85-4.21-20.12-5.56-30.05l-.02-.13c-1.24-9.12-1.67-18.36-2-27.05-.54-14.12-.8-32.71,2.09-51.26,1.46-9.38,2.95-17.22,5.5-25.01,5.11-15.62,12.55-30.68,22.75-46.04,5.4-8.13,11.2-16.65,17.98-24.64h-.9c-6.64,7.89-12.34,16.26-17.65,24.25-10.24,15.41-17.7,30.53-22.83,46.21-2.56,7.83-4.06,15.71-5.53,25.12-2.89,18.61-2.64,37.24-2.09,51.39.33,8.7.77,17.96,2.01,27.12l.02.13c1.35,9.96,2.74,20.26,5.58,30.15,1.95,6.82,5.13,13.16,8.2,19.29l.52,1.04c5.81,11.62,12.48,21.18,20.37,29.2,1.74,1.77,3.57,2.65,5.4,2.65s3.66-.88,5.41-2.65c6.22-6.28,11.24-13.62,16.11-20.72,1.12-1.64,2.25-3.28,3.38-4.91,8.15-11.66,17.01-23.48,27.1-36.14,11.57-14.51,24.49-28.19,36.99-41.41,1.88-1.99,3.77-3.99,5.65-5.98,13.57-14.41,27.73-28.71,41.42-42.53,11.43-11.54,23.25-23.47,34.66-35.41,7.99-8.35,16.91-18.63,22.5-31.46,3.1-7.12,5-14.99,5.97-24.78.32-3.27.53-6.69.62-10.55h-.69Z"/>
        <path class="cls-1" d="M207.19,585.19c-8.78-13.68-20.62-26.7-36.19-39.79-11.9-10.01-24.82-19.07-37.32-27.83-3.24-2.27-6.48-4.55-9.71-6.84-18.66-13.25-38.08-28.19-53.64-47.68-12.22-15.3-21.19-28.93-28.23-42.89-10.01-19.85-13.62-37.62-11.37-55.94,1.3-10.58,5.31-20.8,12.24-31.23,4.23-6.37,9.33-12.21,14.27-17.85,2.94-3.36,5.97-6.84,8.8-10.4,5.39-6.79,10.89-14.24,14.56-22.75,3.43-7.97,4.57-16.32,3.37-24.83-1.04-7.38-3.39-14.66-5.67-21.69l-.36-1.1c-2.87-8.87-4.92-18.6-6.27-29.75-.62-5.11-.89-10.36-1.14-15.43-.11-2.15-.22-4.29-.35-6.43-.26-4.12-.28-8.32-.3-12.39-.03-5.2-.06-10.58-.58-15.87-.29-2.92-.36-5.91-.42-8.81-.04-1.81-.09-3.67-.18-5.51-.16-2.99-.33-5.98-.5-8.98-.46-8.14-.94-16.55-1.12-24.82-.04-1.58-.08-3.15-.12-4.73-.25-9.65-.51-19.63.64-29.45.64-5.49,1.67-12.7,3.96-19.83,2.81-8.78,7.3-17.46,14.15-27.32,5.73-8.25,12.15-16.48,19.55-25.05h-.92c-7.25,8.42-13.56,16.52-19.2,24.64-6.88,9.92-11.41,18.66-14.24,27.51-2.3,7.19-3.34,14.45-3.99,19.96-1.16,9.86-.89,19.87-.64,29.55.04,1.58.08,3.15.12,4.73.19,8.28.66,16.7,1.13,24.84.17,2.99.34,5.98.5,8.98.1,1.82.14,3.68.18,5.48.07,2.91.14,5.92.43,8.86.52,5.25.55,10.62.58,15.8.02,4.08.05,8.29.31,12.43.13,2.14.24,4.28.35,6.42.26,5.09.53,10.34,1.15,15.48,1.35,11.19,3.42,20.97,6.3,29.89l.36,1.1c2.27,7.01,4.62,14.25,5.64,21.57,1.18,8.38.06,16.61-3.32,24.45-3.64,8.44-9.1,15.85-14.46,22.59-2.82,3.55-5.85,7.02-8.78,10.37-4.95,5.66-10.06,11.52-14.32,17.93-7,10.53-11.04,20.85-12.35,31.54-2.27,18.46,1.36,36.37,11.44,56.35,7.06,14.01,16.06,27.68,28.31,43.01,15.62,19.55,35.08,34.54,53.78,47.81,3.23,2.29,6.47,4.56,9.71,6.84,12.48,8.75,25.39,17.81,37.27,27.8,15.73,13.23,27.19,25.82,36.06,39.63,7.54,11.74,13,24.3,16.25,37.34,2.08,8.34,2.9,16.18,2.45,23.32-.94,14.92-5.38,29.2-13.2,42.43-7.39,12.51-16.22,23.57-26.26,32.89-12.75,11.84-26.02,19.93-40.57,24.74-10.89,3.6-22.78,4.8-36.34,3.66-17.33-1.46-34.01-6.24-49.6-14.23-14.93-7.65-27.72-18.8-38.01-33.15-7.78-10.84-14.64-23.36-21.33-38.99v1.74c6.51,15,13.21,27.12,20.77,37.66,10.36,14.44,23.23,25.66,38.26,33.36,15.67,8.03,32.45,12.84,49.86,14.31,3.31.28,6.53.42,9.66.42,9.75,0,18.64-1.36,26.96-4.11,14.65-4.84,28-12.99,40.82-24.89,10.08-9.36,18.96-20.48,26.38-33.05,7.88-13.33,12.35-27.72,13.29-42.75.45-7.21-.38-15.13-2.47-23.54-3.26-13.12-8.76-25.75-16.34-37.55Z"/>
      </g>
    </g>
  </g>
</svg>